<svg width="480" height="480" viewBox="0 0 480 480" fill="none" xmlns="http://www.w3.org/2000/svg">
<g clip-path="url(#clip0_2209_13346)">
<path d="M53.3333 -10L0 47.1428V161.429L160 -10H53.3333Z" fill="#FF5757"/>
<path d="M6.30859 74.3679L9.35904 71.137C10.6641 69.7548 11.846 68.8918 12.9046 68.5483C13.9632 68.2047 14.9801 68.4933 15.9552 69.414C16.3481 69.785 16.6428 70.1841 16.8393 70.6113C17.0403 71.0339 17.1308 71.4596 17.1109 71.8885C17.091 72.3173 16.9509 72.7313 16.6906 73.1302L16.7616 73.1972C17.1589 72.9187 17.577 72.7225 18.0158 72.6086C18.4499 72.4902 18.9109 72.5046 19.3987 72.6517C19.8862 72.7897 20.4022 73.1157 20.9466 73.6297C21.5762 74.2242 21.9706 74.8875 22.1298 75.6198C22.2889 76.3521 22.2189 77.1186 21.9195 77.9194C21.6198 78.7109 21.099 79.4996 20.3571 80.2854L16.6898 84.1695L6.30859 74.3679ZM12.4982 76.0484L13.705 74.7703C14.3084 74.1312 14.6269 73.5947 14.6605 73.1609C14.6893 72.7225 14.5073 72.3179 14.1144 71.9469C13.7168 71.5714 13.2942 71.45 12.8466 71.5826C12.3989 71.706 11.8777 72.0825 11.2833 72.7121L10.1905 73.8695L12.4982 76.0484ZM14.245 77.6977L16.9504 80.252L18.3046 78.8176C18.9304 78.1549 19.2383 77.5727 19.2285 77.071C19.2187 76.5693 18.9984 76.115 18.5677 75.7083C18.312 75.4669 18.0336 75.3115 17.7322 75.2418C17.4308 75.1722 17.0983 75.2209 16.7347 75.3879C16.3755 75.5502 15.9747 75.8657 15.5322 76.3343L14.245 77.6977Z" fill="white"/>
<path d="M31.9152 68.0438L28.7335 66.4634L25.1602 70.248L26.9206 73.3338L24.6813 75.7054L17.7169 62.1996L20.2578 59.5084L34.1545 65.6721L31.9152 68.0438ZM26.3912 65.2457L23.2663 63.7189C23.0607 63.6143 22.7944 63.4838 22.4676 63.3274C22.1404 63.1618 21.8087 62.9963 21.4723 62.8309C21.1357 62.6564 20.848 62.5011 20.6093 62.3652C20.7586 62.5958 20.9375 62.89 21.1458 63.2479C21.3539 63.5965 21.5499 63.9294 21.7341 64.2465C21.9182 64.5636 22.049 64.7901 22.1266 64.926L23.8369 67.9511L26.3912 65.2457Z" fill="white"/>
<path d="M44.0902 55.1489L41.4487 57.9465L29.3314 55.0477L29.2711 55.1116C29.6156 55.401 29.9602 55.6951 30.305 55.9938C30.6498 56.2924 30.9945 56.5911 31.3393 56.8898C31.6794 57.184 32.0218 57.4804 32.3665 57.7791L37.2518 62.3916L35.3948 64.3585L25.0135 54.5568L27.6349 51.7805L39.6674 54.6127L39.7143 54.563C39.3835 54.2685 39.0528 53.9787 38.7222 53.6934C38.3916 53.4082 38.061 53.1229 37.7305 52.8376C37.4044 52.5476 37.0782 52.2577 36.7521 51.9677L31.8384 47.3283L33.7089 45.3472L44.0902 55.1489Z" fill="white"/>
<path d="M50.2558 38.1918C51.0274 38.9203 51.648 39.6808 52.1174 40.4733C52.5867 41.2566 52.8768 42.0588 52.9879 42.88C53.099 43.7012 53.0122 44.5281 52.7276 45.3606L57.878 45.4959L55.2165 48.3149L51.0907 48.0189C51.0594 48.052 51.0326 48.0804 51.0102 48.1041C50.9879 48.1278 50.9633 48.1538 50.9365 48.1822C50.1364 49.0296 49.3182 49.6449 48.4818 50.0281C47.6407 50.4069 46.7912 50.5764 45.9335 50.5365C45.0802 50.4919 44.2307 50.2584 43.385 49.836C42.5392 49.4135 41.714 48.8224 40.9093 48.0626C39.8347 47.048 39.0651 45.9901 38.6006 44.889C38.1358 43.7786 38.0297 42.6487 38.2822 41.4993C38.5347 40.3499 39.1951 39.2095 40.2633 38.0781C41.327 36.9514 42.421 36.2338 43.545 35.9252C44.6736 35.6119 45.8032 35.6577 46.934 36.0628C48.0692 36.4631 49.1765 37.1728 50.2558 38.1918ZM43.1023 45.7683C43.8266 46.4521 44.5364 46.9521 45.2317 47.2684C45.9267 47.5754 46.5995 47.6689 47.25 47.5489C47.8958 47.4244 48.5092 47.0545 49.0903 46.4391C49.6803 45.8143 50.0189 45.1759 50.1061 44.524C50.1885 43.8677 50.0521 43.2061 49.6967 42.5393C49.3411 41.8633 48.8012 41.1834 48.0769 40.4995C46.9881 39.4716 45.9391 38.8661 44.9299 38.6833C43.9206 38.5004 42.9758 38.8752 42.0953 39.8078C41.5098 40.4279 41.1736 41.0685 41.0866 41.7296C40.9994 42.3815 41.1314 43.0478 41.4825 43.7285C41.8334 44.4001 42.3733 45.08 43.1023 45.7683Z" fill="white"/>
<path d="M55.0888 22.703L61.8061 29.0453C62.5209 29.7202 63.0174 30.4888 63.2954 31.3513C63.5732 32.2045 63.5785 33.1093 63.3112 34.0657C63.0484 35.0174 62.4611 35.9761 61.5493 36.9418C60.2532 38.3146 58.9151 39.03 57.5351 39.0881C56.1552 39.1461 54.8877 38.6299 53.7326 37.5393L47.0437 31.2239L49.1153 29.0298L55.4705 35.0301C56.3273 35.8391 57.0939 36.2315 57.7702 36.2075C58.4465 36.1835 59.1087 35.8283 59.7568 35.1419C60.2127 34.659 60.4986 34.1903 60.6145 33.7356C60.7348 33.2762 60.6893 32.8124 60.4778 32.3441C60.2663 31.8758 59.8931 31.3891 59.3582 30.8841L53.0172 24.8971L55.0888 22.703Z" fill="white"/>
<path d="M73.5152 23.9838L67.8702 29.9626L57.489 20.161L63.134 14.1822L64.9376 15.885L61.3709 19.6626L63.6502 21.8147L66.9688 18.2998L68.7724 20.0027L65.4538 23.5176L68.1308 26.0451L71.6974 22.2675L73.5152 23.9838Z" fill="white"/>
<path d="M79.3479 17.8062L77.2696 20.0074L68.7203 11.9355L66.0588 14.7544L64.2268 13.0247L71.6283 5.18555L73.4603 6.91525L70.7987 9.73423L79.3479 17.8062Z" fill="white"/>
<path d="M62.1894 79.6782L60.1178 81.8723L55.6373 77.6419L51.7555 81.7532L56.236 85.9836L54.1577 88.1848L43.7765 78.3832L45.8548 76.182L49.9235 80.0235L53.8053 75.9122L49.7366 72.0706L51.8082 69.8765L62.1894 79.6782Z" fill="white"/>
<path d="M70.6703 70.6958L67.4886 69.1153L63.9153 72.9L65.6757 75.9858L63.4364 78.3574L56.472 64.8516L59.0129 62.1604L72.9096 68.3241L70.6703 70.6958ZM65.1463 67.8977L62.0214 66.3709C61.8158 66.2663 61.5495 66.1358 61.2227 65.9794C60.8955 65.8137 60.5638 65.6483 60.2274 65.4829C59.8908 65.3084 59.6031 65.1531 59.3644 65.0172C59.5137 65.2478 59.6926 65.542 59.9009 65.8999C60.109 66.2485 60.305 66.5814 60.4891 66.8985C60.6733 67.2156 60.8041 67.4421 60.8817 67.578L62.592 70.6031L65.1463 67.8977Z" fill="white"/>
<path d="M74.1498 67.0105L63.7686 57.2088L65.8469 55.0076L74.4104 63.093L78.386 58.8822L80.2038 60.5985L74.1498 67.0105Z" fill="white"/>
<path d="M81.9134 58.7879L71.5321 48.9862L73.6105 46.785L82.1739 54.8703L86.1496 50.6596L87.9673 52.3759L81.9134 58.7879Z" fill="white"/>
<path fill-rule="evenodd" clip-rule="evenodd" d="M167.108 203.419C167.185 203.827 167.682 206.772 167.198 211.668C165.91 224.705 157.667 251.57 116.009 281.173C114.975 281.907 113.807 282.259 112.65 282.259C110.691 282.259 108.768 281.248 107.599 279.38C105.741 276.41 106.493 272.396 109.281 270.416C123.769 260.12 142.821 243.764 151.306 224.309C152.977 220.475 153.964 217.125 154.537 214.368C155.539 209.548 155.277 206.546 155.21 205.957C155.207 205.936 155.203 205.904 155.203 205.904C155.199 205.872 155.196 205.85 155.196 205.85L155.21 205.957L167.108 203.419Z" fill="url(#paint0_linear_2209_13346)"/>
<path fill-rule="evenodd" clip-rule="evenodd" d="M312.874 202.33C312.874 202.33 312.868 202.363 312.864 202.384C312.764 202.952 312.328 205.839 312.8 210.533C314.102 223.51 322.34 250.293 363.788 280.024C364.865 280.796 366.113 281.168 367.35 281.168C369.224 281.168 371.072 280.314 372.26 278.705C374.23 276.033 373.631 272.293 370.922 270.349C356.34 259.888 337.176 243.256 328.688 223.418C326.924 219.297 325.924 215.715 325.367 212.806C324.442 207.97 324.744 204.992 324.807 204.487C324.813 204.442 324.818 204.412 324.818 204.412L324.807 204.487L312.874 202.33Z" fill="url(#paint1_linear_2209_13346)"/>
<path fill-rule="evenodd" clip-rule="evenodd" d="M104.559 235.879H96.4731V391.708H104.559V235.879ZM112.645 227.677V399.91H88.3871V227.677H112.645Z" fill="url(#paint2_linear_2209_13346)"/>
<path fill-rule="evenodd" clip-rule="evenodd" d="M375.441 395.462H383.527V239.402H375.441V395.462ZM367.355 403.548V231.316H391.613V403.548H367.355Z" fill="url(#paint3_linear_2209_13346)"/>
<path fill-rule="evenodd" clip-rule="evenodd" d="M116.526 403.332H84.5066C84.4555 403.332 84.4144 403.347 84.4144 403.347C84.3944 403.355 84.3746 403.369 84.3583 403.385L84.3441 403.401V417.133H116.688V403.401L116.674 403.385C116.658 403.369 116.638 403.355 116.618 403.347C116.618 403.347 116.577 403.332 116.526 403.332ZM124.774 403.399C124.774 398.896 121.082 395.246 116.526 395.246H84.5066C79.9506 395.246 76.2581 398.896 76.2581 403.399V425.219H124.774V403.399ZM76.2581 225.239C76.2581 229.742 79.9506 233.392 84.5066 233.392H116.526C121.082 233.392 124.775 229.742 124.775 225.239L124.774 203.419H76.2581V225.239ZM84.3441 211.505H116.688L116.689 225.237L116.675 225.253C116.658 225.27 116.638 225.283 116.618 225.291C116.603 225.298 116.577 225.306 116.526 225.306H84.5066C84.4555 225.306 84.4144 225.291 84.4144 225.291C84.3944 225.283 84.3746 225.27 84.3583 225.254L84.3441 225.237V211.505Z" fill="url(#paint4_linear_2209_13346)"/>
<path fill-rule="evenodd" clip-rule="evenodd" d="M355.227 403.399V425.219H403.743V403.399C403.743 398.896 400.049 395.246 395.494 395.246H363.474C358.918 395.246 355.226 398.896 355.227 403.399ZM395.657 417.133V403.401L395.642 403.385C395.626 403.369 395.606 403.355 395.586 403.347C395.571 403.341 395.545 403.332 395.494 403.332H363.474C363.423 403.332 363.382 403.347 363.382 403.347C363.362 403.355 363.342 403.368 363.326 403.384L363.313 403.4V417.133H395.657ZM395.656 211.505H363.311V225.237L363.325 225.253C363.342 225.27 363.362 225.283 363.382 225.291C363.397 225.298 363.423 225.306 363.474 225.306H395.493C395.544 225.306 395.585 225.291 395.585 225.291C395.605 225.283 395.625 225.27 395.642 225.254L395.656 225.237V211.505ZM355.226 203.419L355.225 225.239C355.225 229.742 358.918 233.392 363.474 233.392H395.493C400.049 233.392 403.742 229.742 403.742 225.239V203.419H355.226Z" fill="url(#paint5_linear_2209_13346)"/>
<path fill-rule="evenodd" clip-rule="evenodd" d="M407.785 429.828H72.2151V437.914H407.785V429.828ZM415.871 421.742V446H64.129V421.742H415.871Z" fill="url(#paint6_linear_2209_13346)"/>
<path fill-rule="evenodd" clip-rule="evenodd" d="M407.785 187.247H72.2151V201.398H407.785V187.247ZM415.871 179.161V209.484H64.129V179.161H415.871Z" fill="url(#paint7_linear_2209_13346)"/>
<path fill-rule="evenodd" clip-rule="evenodd" d="M52 185.226H428L240 70L52 185.226ZM80.6668 177.14H399.333L240 79.4839L80.6668 177.14Z" fill="url(#paint8_linear_2209_13346)"/>
<path fill-rule="evenodd" clip-rule="evenodd" d="M174.503 167.032C171.781 163.402 168.236 160.752 164.322 159.147C160.594 157.619 156.531 157.038 152.524 157.462C148.317 157.907 144.172 159.458 140.542 162.181C144.172 159.458 146.822 155.913 148.427 151.999C149.955 148.271 150.536 144.208 150.112 140.201C149.667 135.994 148.116 131.849 145.394 128.219C148.116 131.849 151.661 134.499 155.575 136.104C159.303 137.632 163.366 138.213 167.374 137.789C171.58 137.345 175.725 135.794 179.355 133.071C175.725 135.793 173.075 139.338 171.471 143.252C169.942 146.98 169.361 151.043 169.785 155.051C170.229 159.257 171.781 163.402 174.503 167.032ZM163.585 152.475C163.588 149.604 163.996 146.745 164.798 143.989C161.927 143.986 159.068 143.578 156.312 142.776C156.309 145.647 155.901 148.506 155.099 151.263C157.97 151.265 160.829 151.673 163.585 152.475ZM391.564 92.9055C394.234 95.9233 397.623 98.2384 401.405 99.6279C405.376 101.087 409.78 101.525 414.239 100.686C409.78 101.525 405.837 103.535 402.669 106.338C399.651 109.008 397.336 112.397 395.946 116.179C394.487 120.15 394.049 124.554 394.889 129.013C394.049 124.554 392.039 120.611 389.236 117.443C386.566 114.425 383.177 112.11 379.395 110.72C375.424 109.262 371.02 108.823 366.561 109.663C371.02 108.823 374.963 106.813 378.131 104.01C381.149 101.34 383.464 97.9511 384.854 94.1689C386.312 90.1982 386.751 85.7944 385.911 81.3353C386.751 85.7946 388.761 89.7373 391.564 92.9055ZM389.278 99.2176C388.009 101.792 386.379 104.177 384.443 106.296C387.017 107.566 389.402 109.195 391.521 111.131C392.791 108.557 394.42 106.172 396.357 104.053C393.782 102.783 391.397 101.154 389.278 99.2176ZM77.3312 106.338C80.3491 109.008 82.6642 112.397 84.0537 116.18C85.5125 120.15 85.9511 124.554 85.1115 129.013C85.9511 124.554 87.9612 120.611 90.7641 117.443C93.4339 114.425 96.8232 112.11 100.605 110.72C104.576 109.262 108.98 108.823 113.439 109.663C108.98 108.823 105.037 106.813 101.869 104.01C98.851 101.34 96.5359 97.9511 95.1463 94.1689C93.6875 90.1982 93.2489 85.7944 94.0885 81.3353C93.2489 85.7946 91.2389 89.7373 88.436 92.9055C85.7661 95.9234 82.3769 98.2385 78.5948 99.628C74.6241 101.087 70.2204 101.525 65.7611 100.686C70.2204 101.525 74.163 103.535 77.3312 106.338ZM83.6434 104.053C85.5796 106.172 87.2086 108.557 88.4784 111.131C90.5975 109.195 92.9824 107.566 95.5567 106.296C93.6205 104.177 91.9914 101.792 90.7217 99.2176C88.6026 101.154 86.2177 102.783 83.6434 104.053ZM339.458 162.181C335.828 159.458 333.178 155.913 331.573 151.999C330.045 148.271 329.464 144.208 329.888 140.201C330.333 135.994 331.884 131.849 334.606 128.219C331.884 131.849 328.339 134.499 324.425 136.104C320.697 137.632 316.634 138.213 312.626 137.789C308.42 137.345 304.275 135.794 300.645 133.071C304.275 135.793 306.925 139.338 308.529 143.252C310.058 146.98 310.639 151.044 310.215 155.051C309.771 159.257 308.219 163.402 305.497 167.032C308.219 163.402 311.764 160.752 315.678 159.147C319.406 157.619 323.469 157.038 327.476 157.462C331.683 157.907 335.828 159.458 339.458 162.181ZM324.901 151.263C324.099 148.506 323.691 145.647 323.688 142.776C320.932 143.578 318.073 143.986 315.202 143.989C316.004 146.745 316.412 149.604 316.415 152.475C319.171 151.673 322.03 151.265 324.901 151.263Z" fill="url(#paint9_linear_2209_13346)"/>
</g>
<rect x="0.075" y="0.075" width="479.85" height="479.85" stroke="#0B81DA" stroke-opacity="0.5" stroke-width="0.15"/>
<defs>
<linearGradient id="paint0_linear_2209_13346" x1="240" y1="70" x2="240" y2="446" gradientUnits="userSpaceOnUse">
<stop stop-color="#232D3F"/>
<stop offset="1" stop-color="#0189EC"/>
</linearGradient>
<linearGradient id="paint1_linear_2209_13346" x1="240" y1="70" x2="240" y2="446" gradientUnits="userSpaceOnUse">
<stop stop-color="#232D3F"/>
<stop offset="1" stop-color="#0189EC"/>
</linearGradient>
<linearGradient id="paint2_linear_2209_13346" x1="240" y1="70" x2="240" y2="446" gradientUnits="userSpaceOnUse">
<stop stop-color="#232D3F"/>
<stop offset="1" stop-color="#0189EC"/>
</linearGradient>
<linearGradient id="paint3_linear_2209_13346" x1="240" y1="70" x2="240" y2="446" gradientUnits="userSpaceOnUse">
<stop stop-color="#232D3F"/>
<stop offset="1" stop-color="#0189EC"/>
</linearGradient>
<linearGradient id="paint4_linear_2209_13346" x1="240" y1="70" x2="240" y2="446" gradientUnits="userSpaceOnUse">
<stop stop-color="#232D3F"/>
<stop offset="1" stop-color="#0189EC"/>
</linearGradient>
<linearGradient id="paint5_linear_2209_13346" x1="240" y1="70" x2="240" y2="446" gradientUnits="userSpaceOnUse">
<stop stop-color="#232D3F"/>
<stop offset="1" stop-color="#0189EC"/>
</linearGradient>
<linearGradient id="paint6_linear_2209_13346" x1="240" y1="70" x2="240" y2="446" gradientUnits="userSpaceOnUse">
<stop stop-color="#232D3F"/>
<stop offset="1" stop-color="#0189EC"/>
</linearGradient>
<linearGradient id="paint7_linear_2209_13346" x1="240" y1="70" x2="240" y2="446" gradientUnits="userSpaceOnUse">
<stop stop-color="#232D3F"/>
<stop offset="1" stop-color="#0189EC"/>
</linearGradient>
<linearGradient id="paint8_linear_2209_13346" x1="240" y1="70" x2="240" y2="446" gradientUnits="userSpaceOnUse">
<stop stop-color="#232D3F"/>
<stop offset="1" stop-color="#0189EC"/>
</linearGradient>
<linearGradient id="paint9_linear_2209_13346" x1="240" y1="70" x2="240" y2="446" gradientUnits="userSpaceOnUse">
<stop stop-color="#232D3F"/>
<stop offset="1" stop-color="#0189EC"/>
</linearGradient>
<clipPath id="clip0_2209_13346">
<rect width="480" height="480" fill="white"/>
</clipPath>
</defs>
</svg>
