<svg width="480" height="480" viewBox="0 0 480 480" fill="none" xmlns="http://www.w3.org/2000/svg">
<rect x="0.075" y="0.075" width="479.85" height="479.85" stroke="#0B81DA" stroke-opacity="0.5" stroke-width="0.15"/>
<path d="M390.75 278.835H247.5V155.153C254.877 161.097 264.067 164.336 273.54 164.333H282.908C289.849 164.328 296.68 162.59 302.78 159.278C308.88 155.966 314.058 151.184 317.843 145.365C321.626 151.184 326.802 155.967 332.901 159.279C339 162.591 345.83 164.328 352.77 164.333H362.138C373.204 164.319 383.812 159.916 391.635 152.09C399.459 144.264 403.858 133.654 403.868 122.588C403.892 121.352 403.61 120.13 403.047 119.029C402.484 117.929 401.658 116.985 400.643 116.28L244.23 9.34539C242.983 8.49248 241.507 8.03613 239.997 8.03613C238.486 8.03613 237.01 8.49248 235.763 9.34539L79.3953 116.25C78.3797 116.955 77.5538 117.899 76.9912 118.999C76.4285 120.1 76.1466 121.322 76.1703 122.558H76.1328C76.1427 133.624 80.542 144.234 88.3653 152.06C96.1886 159.886 106.797 164.289 117.863 164.303H127.23C133.961 164.298 140.591 162.664 146.554 159.54C152.516 156.416 157.633 151.895 161.468 146.363C165.3 151.895 170.416 156.417 176.377 159.541C182.338 162.665 188.968 164.299 195.698 164.303H205.073C215.167 164.309 224.917 160.637 232.5 153.975V278.835H90.8178C88.8287 278.835 86.921 279.626 85.5145 281.032C84.108 282.439 83.3178 284.346 83.3178 286.335V323.085C83.3178 325.074 84.108 326.982 85.5145 328.389C86.921 329.795 88.8287 330.585 90.8178 330.585H157.065L205.065 381.098L130.725 459.3C129.717 460.364 129.042 461.7 128.785 463.143C128.527 464.586 128.698 466.073 129.277 467.42C129.855 468.767 130.816 469.915 132.04 470.722C133.264 471.529 134.697 471.959 136.163 471.96H185.468C186.485 471.961 187.492 471.754 188.426 471.353C189.361 470.952 190.205 470.365 190.905 469.628L240.038 417.878L289.17 469.628C289.871 470.365 290.715 470.952 291.649 471.353C292.584 471.754 293.591 471.961 294.608 471.96H343.913C345.379 471.959 346.812 471.529 348.036 470.722C349.26 469.915 350.22 468.767 350.799 467.42C351.377 466.073 351.548 464.586 351.291 463.143C351.033 461.7 350.359 460.364 349.35 459.3L275.033 381.06L323.033 330.548H390.75C392.739 330.548 394.647 329.758 396.054 328.351C397.46 326.945 398.25 325.037 398.25 323.048V286.298C398.24 284.315 397.446 282.417 396.04 281.019C394.635 279.62 392.733 278.835 390.75 278.835ZM247.5 114.968V38.5204L303.33 114.968H247.5ZM232.5 114.968H176.67L232.5 38.5279V114.968ZM282.908 149.333H273.54C267.759 149.323 262.136 147.443 257.51 143.975C252.884 140.506 249.505 135.635 247.875 130.088H308.58C306.951 135.636 303.57 140.509 298.943 143.977C294.316 147.446 288.691 149.325 282.908 149.333ZM362.138 149.333H352.77C346.984 149.314 341.361 147.415 336.748 143.922C332.135 140.43 328.782 135.532 327.195 129.968H387.705C386.118 135.531 382.767 140.427 378.156 143.92C373.544 147.413 367.923 149.313 362.138 149.333ZM321.9 114.968L271.815 46.3804L372.12 114.968H321.9ZM208.193 46.3729L158.1 114.968H107.85L208.193 46.3729ZM127.193 149.333H117.863C112.078 149.313 106.457 147.413 101.845 143.92C97.2337 140.427 93.8821 135.531 92.2953 129.968H152.805C151.218 135.532 147.865 140.43 143.253 143.922C138.64 147.415 133.016 149.314 127.23 149.333H127.193ZM205.035 149.333H195.66C189.879 149.323 184.256 147.443 179.63 143.975C175.004 140.506 171.625 135.635 169.995 130.088H230.7C229.074 135.63 225.7 140.497 221.082 143.965C216.464 147.433 210.848 149.316 205.073 149.333H205.035ZM319.785 315.548H131.25V293.798H350.333V315.548H319.785ZM227.048 330.548H253.013L240.038 344.25L227.048 330.548ZM98.3103 315.548V293.798H116.25V315.548H98.3103ZM182.25 456.96H153.63L215.385 391.943L229.695 407.018L182.25 456.96ZM297.833 456.96L177.75 330.548H206.37L326.445 456.96H297.833ZM264.69 370.17L250.38 355.103L273.713 330.548H302.325L264.69 370.17ZM383.25 315.548H365.333V293.798H383.25V315.548ZM233.565 381.053C233.631 379.786 234.068 378.566 234.82 377.544C235.572 376.522 236.608 375.743 237.799 375.304C238.989 374.865 240.282 374.784 241.518 375.073C242.754 375.361 243.878 376.005 244.751 376.926C245.625 377.847 246.209 379.004 246.431 380.253C246.654 381.502 246.505 382.789 246.003 383.955C245.501 385.121 244.669 386.114 243.609 386.811C242.548 387.508 241.307 387.879 240.038 387.878C238.275 387.831 236.602 387.085 235.388 385.805C234.175 384.526 233.519 382.816 233.565 381.053Z" fill="url(#paint0_linear_1255_18618)"/>
<path d="M43.3333 0L0 43.3333V130L130 0H43.3333Z" fill="#FF5757"/>
<path d="M33.5334 64.2528L31.1027 66.6835L24.2043 65.0746L23.9488 66.6283L27.5534 70.2328L25.4127 72.3735L15.3171 62.2779L17.4578 60.1372L22.0774 64.7569C22.0222 64.4163 21.9647 64.0779 21.9048 63.7418C21.845 63.4058 21.7874 63.0674 21.7322 62.7267L21.0347 56.5603L23.4102 54.1848L24.3562 62.1743L33.5334 64.2528Z" fill="white"/>
<path d="M34.804 62.9822L24.7084 52.8866L26.849 50.746L36.9446 60.8416L34.804 62.9822Z" fill="white"/>
<path d="M42.6415 49.5375C43.24 50.136 43.6152 50.8012 43.7671 51.5332C43.919 52.2652 43.8362 53.0293 43.5185 53.8258C43.2055 54.6176 42.6531 55.4094 41.8612 56.2012C41.5114 56.5511 41.1454 56.871 40.7633 57.161C40.3858 57.4465 39.9991 57.6997 39.6032 57.9206C39.2073 58.1324 38.8045 58.3096 38.3948 58.4523L36.406 56.4636C37.0966 56.1966 37.7848 55.8905 38.4707 55.5452C39.1566 55.1999 39.7528 54.7741 40.2592 54.2677C40.6091 53.9178 40.8439 53.591 40.9635 53.2871C41.0878 52.9787 41.1178 52.6956 41.0533 52.4378C40.9889 52.18 40.8531 51.9475 40.6459 51.7404C40.3927 51.4872 40.0912 51.356 39.7413 51.3467C39.3914 51.3375 38.9886 51.4043 38.5329 51.547C38.0817 51.6851 37.5799 51.8508 37.0275 52.0442C36.6822 52.1685 36.2932 52.2905 35.8605 52.4102C35.4232 52.5253 34.9651 52.592 34.4863 52.6104C34.0076 52.6288 33.5242 52.5552 33.0362 52.3895C32.5482 52.2145 32.0741 51.8969 31.6137 51.4365C31.0106 50.8334 30.6332 50.1797 30.4812 49.4754C30.3293 48.7711 30.3961 48.0506 30.6815 47.314C30.9669 46.5683 31.4595 45.8455 32.1592 45.1458C32.684 44.6209 33.2457 44.1836 33.8441 43.8337C34.4426 43.4747 35.117 43.1501 35.8674 42.8601L36.8411 45.2148C36.1873 45.491 35.6257 45.7626 35.1562 46.0296C34.682 46.292 34.2539 46.6143 33.8718 46.9964C33.6048 47.2634 33.4206 47.535 33.3193 47.8112C33.2135 48.0828 33.1904 48.3452 33.2503 48.5984C33.3055 48.847 33.4344 49.0726 33.637 49.2751C33.8764 49.5145 34.148 49.648 34.4518 49.6757C34.7556 49.6941 35.1239 49.6388 35.5567 49.5099C35.994 49.3764 36.5257 49.1992 37.1518 48.9782C37.9114 48.7066 38.6065 48.5225 39.2372 48.4258C39.8679 48.3199 40.4618 48.3475 41.0188 48.5087C41.5712 48.6652 42.1121 49.0081 42.6415 49.5375Z" fill="white"/>
<path d="M51.3768 36.2862C52.1548 37.0642 52.7671 37.8698 53.2136 38.7031C53.6556 39.5317 53.9088 40.3742 53.9732 41.2304C54.0423 42.0821 53.8995 42.9337 53.5451 43.7854C53.186 44.6325 52.5944 45.468 51.7704 46.292C50.9464 47.1161 50.1108 47.7076 49.2638 48.0667C48.4121 48.4212 47.5581 48.5662 46.7019 48.5017C45.8502 48.4327 45.0078 48.1749 44.1745 47.7283C43.3413 47.2818 42.5334 46.6672 41.7508 45.8846C40.7057 44.8396 39.9669 43.7601 39.5341 42.646C39.1014 41.5227 39.0277 40.3903 39.3132 39.2486C39.5986 38.1069 40.2914 36.9859 41.3917 35.8857C42.4873 34.79 43.6014 34.1041 44.7339 33.8279C45.8709 33.5471 46.9988 33.6253 48.1175 34.0627C49.2407 34.4954 50.3272 35.2366 51.3768 36.2862ZM44.0088 43.6542C44.7131 44.3585 45.4083 44.8787 46.0942 45.2148C46.7801 45.5417 47.45 45.6544 48.1037 45.5532C48.7528 45.4473 49.3765 45.0951 49.975 44.4967C50.5827 43.889 50.9395 43.2606 51.0453 42.6115C51.1466 41.9578 51.0292 41.2926 50.6932 40.6158C50.3571 39.9299 49.8369 39.2348 49.1326 38.5304C48.0737 37.4716 47.0425 36.8363 46.039 36.6246C45.0354 36.4128 44.0802 36.7604 43.1733 37.6673C42.5702 38.2703 42.2157 38.901 42.1098 39.5593C42.0039 40.2084 42.1167 40.8783 42.4482 41.5688C42.7796 42.2501 43.2999 42.9453 44.0088 43.6542Z" fill="white"/>
<path d="M66.6514 31.1348L64.2207 33.5655L57.3223 31.9566L57.0668 33.5103L60.6714 37.1148L58.5307 39.2555L48.4351 29.1599L50.5758 27.0192L55.1954 31.6389C55.1402 31.2982 55.0827 30.9599 55.0228 30.6238C54.963 30.2878 54.9054 29.9494 54.8502 29.6087L54.1527 23.4423L56.5282 21.0668L57.4742 29.0563L66.6514 31.1348Z" fill="white"/>
<defs>
<linearGradient id="paint0_linear_1255_18618" x1="240" y1="-25.001" x2="240.001" y2="471.96" gradientUnits="userSpaceOnUse">
<stop stop-color="#232D3F"/>
<stop offset="1" stop-color="#0189EC"/>
</linearGradient>
</defs>
</svg>
