<svg width="480" height="480" viewBox="0 0 480 480" fill="none" xmlns="http://www.w3.org/2000/svg">
<rect x="0.075" y="0.075" width="479.85" height="479.85" stroke="#0B81DA" stroke-opacity="0.5" stroke-width="0.15"/>
<path d="M450.001 361.2C450.001 343.8 438.676 328.425 422.101 323.25L412.501 320.25V258.075L429.301 241.275C450.826 219.75 453.226 185.475 434.926 161.175C430.351 155.1 424.426 150.3 417.151 147.975C401.251 142.875 385.201 148.125 375.676 160.35C356.776 184.65 358.951 219.45 380.701 241.2L397.501 258V315.45L330.001 294.375V39.3752C330.001 36.3752 328.201 33.6752 325.501 32.4752C270.376 9.1502 209.626 9.1502 154.501 32.4752C151.726 33.6002 150.001 36.3752 150.001 39.3752V234.225L66.8258 184.35C59.6258 179.25 50.2508 178.575 42.3758 182.625C34.7258 186.6 29.9258 194.325 29.9258 202.8V450H22.4258C18.3008 450 14.9258 453.375 14.9258 457.5C14.9258 461.625 18.3008 465 22.4258 465H457.501C461.626 465 465.001 461.625 465.001 457.5C465.001 453.375 461.626 450 457.501 450H450.001V361.2ZM391.351 230.7C375.151 214.5 373.351 188.7 387.001 170.4C390.076 166.275 394.426 162.975 399.451 161.775C408.376 159.6 417.151 162.75 422.476 169.65C436.726 188.025 435.151 214.275 418.651 230.7L412.501 236.85V202.425C412.501 198.3 409.126 194.925 405.001 194.925C400.876 194.925 397.501 198.3 397.501 202.425V236.85L391.351 230.7ZM417.676 337.575C428.101 340.8 435.076 350.325 435.076 361.2V450H330.076V310.2L417.676 337.575ZM247.576 345H277.576V450H247.576V345ZM232.576 450H202.576V345H232.576V450ZM285.076 330H195.076C190.951 330 187.576 333.375 187.576 337.5V450H165.076V313.725L210.976 305.4C230.251 301.875 249.826 301.875 269.101 305.4L315.001 313.725V450H292.501V337.5C292.501 333.375 289.126 330 285.001 330H285.076ZM165.001 103.725L202.501 96.9002V149.175L165.001 156V103.725ZM165.001 246.225L202.501 239.4V291.675L165.001 298.5V246.225ZM315.001 231L277.501 224.175V164.4L315.001 171.225V231ZM262.501 221.85C247.501 219.9 232.501 219.9 217.501 221.85V162.075C232.501 160.125 247.501 160.125 262.501 162.075V221.85ZM217.501 237C232.501 234.9 247.501 234.9 262.501 237V289.425C247.501 287.475 232.501 287.475 217.501 289.425V237ZM277.501 239.475L315.001 246.3V298.575L277.501 291.75V239.475ZM315.001 156.075L277.501 149.25V96.9752L315.001 103.8V156.075ZM262.501 147C247.501 145.2 232.501 145.2 217.501 147V94.6502C232.501 92.7002 247.501 92.7002 262.501 94.6502V147ZM165.001 171.3L202.501 164.475V224.25L165.001 231.075V171.3ZM315.001 88.5752L277.501 81.7502V33.6002C290.176 36.0002 302.701 39.6002 315.001 44.4752V88.5752ZM262.501 31.4252V79.5752C247.501 77.7752 232.501 77.7752 217.501 79.5752V31.3502C232.501 29.7002 247.501 29.7002 262.501 31.3502V31.4252ZM202.501 33.6752V81.8252L165.001 88.6502V44.4002C177.301 39.5252 189.826 35.9252 202.501 33.5252V33.6752ZM45.0008 292.5H105.001C109.126 292.5 112.501 289.125 112.501 285C112.501 280.875 109.126 277.5 105.001 277.5H45.0008V262.5H75.0008C79.1258 262.5 82.5008 259.125 82.5008 255C82.5008 250.875 79.1258 247.5 75.0008 247.5H45.0008V202.8C45.0008 198.6 48.0008 196.65 49.2758 195.975C52.2008 194.475 55.5008 194.7 58.5758 196.875L149.926 251.7V449.925H45.0008V292.425V292.5Z" fill="url(#paint0_linear_1255_18621)"/>
<path d="M352.5 435H412.5C416.625 435 420 431.625 420 427.5V352.5C420 348.375 416.625 345 412.5 345H352.5C348.375 345 345 348.375 345 352.5V427.5C345 431.625 348.375 435 352.5 435ZM360 420V397.5H405V420H360ZM405 360V382.5H360V360H405ZM127.5 307.5H67.5C63.375 307.5 60 310.875 60 315V427.5C60 431.625 63.375 435 67.5 435H127.5C131.625 435 135 431.625 135 427.5V315C135 310.875 131.625 307.5 127.5 307.5ZM120 322.5V345H75V322.5H120ZM120 360V382.5H75V360H120ZM75 420V397.5H120V420H75Z" fill="url(#paint1_linear_1255_18621)"/>
<path d="M43.3333 0L0 43.3333V130L130 0H43.3333Z" fill="#FF5757"/>
<path d="M15.4127 83.5844L5.31711 73.4888L7.45777 71.3482L15.7856 79.676L19.8805 75.5812L21.6482 77.3489L15.4127 83.5844Z" fill="white"/>
<path d="M23.4091 75.5881L13.3135 65.4925L15.4542 63.3518L25.5498 73.4474L23.4091 75.5881Z" fill="white"/>
<path d="M30.1971 68.8001L28.0909 70.9062L17.9953 60.8106L23.782 55.024L25.5359 56.7779L21.8554 60.4585L24.4587 63.0618L27.8838 59.6367L29.6308 61.3838L26.2058 64.8088L30.1971 68.8001Z" fill="white"/>
<path d="M41.6668 57.3303L35.8525 63.1446L25.7569 53.049L31.5712 47.2347L33.3252 48.9887L29.6515 52.6623L31.8681 54.8789L35.2863 51.4608L37.0402 53.2148L33.6221 56.6329L36.2254 59.2362L39.8991 55.5626L41.6668 57.3303Z" fill="white"/>
<path d="M46.9356 46.4544C47.5341 47.0529 47.9092 47.7181 48.0612 48.4501C48.2131 49.182 48.1302 49.9462 47.8126 50.7427C47.4995 51.5345 46.9471 52.3263 46.1553 53.1181C45.8054 53.468 45.4394 53.7879 45.0573 54.0779C44.6798 54.3633 44.2931 54.6165 43.8972 54.8375C43.5013 55.0493 43.0985 55.2265 42.6888 55.3692L40.7001 53.3805C41.3906 53.1135 42.0788 52.8073 42.7648 52.4621C43.4507 52.1168 44.0469 51.691 44.5533 51.1846C44.9031 50.8347 45.1379 50.5079 45.2576 50.204C45.3819 49.8956 45.4118 49.6125 45.3474 49.3547C45.2829 49.0969 45.1471 48.8644 44.94 48.6572C44.6868 48.404 44.3852 48.2728 44.0353 48.2636C43.6855 48.2544 43.2827 48.3212 42.8269 48.4639C42.3758 48.602 41.874 48.7677 41.3216 48.9611C40.9763 49.0854 40.5873 49.2074 40.1545 49.3271C39.7172 49.4421 39.2592 49.5089 38.7804 49.5273C38.3016 49.5457 37.8182 49.4721 37.3303 49.3063C36.8423 49.1314 36.3681 48.8138 35.9078 48.3534C35.3047 47.7503 34.9272 47.0966 34.7753 46.3923C34.6234 45.6879 34.6901 44.9675 34.9755 44.2309C35.261 43.4851 35.7535 42.7624 36.4533 42.0626C36.9781 41.5378 37.5397 41.1005 38.1382 40.7506C38.7367 40.3915 39.4111 40.067 40.1615 39.777L41.1351 42.1317C40.4814 42.4079 39.9198 42.6795 39.4502 42.9465C38.976 43.2089 38.5479 43.5312 38.1658 43.9133C37.8988 44.1803 37.7147 44.4519 37.6134 44.7281C37.5075 44.9997 37.4845 45.2621 37.5443 45.5153C37.5996 45.7639 37.7285 45.9895 37.931 46.192C38.1704 46.4314 38.442 46.5649 38.7459 46.5925C39.0497 46.611 39.418 46.5557 39.8507 46.4268C40.2881 46.2933 40.8198 46.1161 41.4458 45.8951C42.2054 45.6235 42.9006 45.4393 43.5313 45.3427C44.1619 45.2368 44.7558 45.2644 45.3128 45.4255C45.8653 45.5821 46.4062 45.925 46.9356 46.4544Z" fill="white"/>
<path d="M55.4637 43.5335L53.323 45.6741L45.009 37.3601L42.2676 40.1015L40.486 38.3199L48.1095 30.6964L49.8911 32.478L47.1497 35.2194L55.4637 43.5335Z" fill="white"/>
<path d="M56.9621 30.1578L54.9113 23.8947L57.2176 21.5883L60.035 31.1039L63.9642 35.033L61.8373 37.1598L57.9772 33.2998L48.3926 30.4133L50.7128 28.0931L56.9621 30.1578Z" fill="white"/>
<path d="M68.5838 30.4133L58.4882 20.3177L60.6289 18.1771L68.9567 26.5049L73.0516 22.41L74.8194 24.1778L68.5838 30.4133Z" fill="white"/>
<path d="M82.3945 16.6026L76.5802 22.4169L66.4846 12.3213L72.2989 6.50704L74.0529 8.261L70.3792 11.9346L72.5958 14.1513L76.014 10.7331L77.7679 12.4871L74.3498 15.9052L76.9531 18.5085L80.6267 14.8349L82.3945 16.6026Z" fill="white"/>
<defs>
<linearGradient id="paint0_linear_1255_18621" x1="239.963" y1="14.9814" x2="239.963" y2="465" gradientUnits="userSpaceOnUse">
<stop stop-color="#232D3F"/>
<stop offset="1" stop-color="#0189EC"/>
</linearGradient>
<linearGradient id="paint1_linear_1255_18621" x1="240" y1="307.5" x2="240" y2="435" gradientUnits="userSpaceOnUse">
<stop stop-color="#232D3F"/>
<stop offset="1" stop-color="#0189EC"/>
</linearGradient>
</defs>
</svg>
