<svg width="480" height="480" viewBox="0 0 480 480" fill="none" xmlns="http://www.w3.org/2000/svg">
<rect x="0.075" y="0.075" width="479.85" height="479.85" stroke="#0B81DA" stroke-opacity="0.5" stroke-width="0.15"/>
<path d="M395.617 125.603C393.376 125.265 391.112 125.106 388.845 125.127H279.44V103.923H301.651C306.69 103.918 311.521 101.914 315.084 98.3506C318.647 94.7874 320.652 89.9562 320.657 84.917V49.0064C320.652 43.9672 318.647 39.136 315.084 35.5728C311.521 32.0096 306.69 30.0054 301.651 30H188.466C183.427 30.0054 178.596 32.0096 175.032 35.5728C171.469 39.136 169.465 43.9672 169.46 49.0064V84.917C169.465 89.9562 171.469 94.7874 175.032 98.3506C178.596 101.914 183.427 103.918 188.466 103.923H210.677V125.127H101.366C87.9361 125.211 75.0796 130.583 65.5825 140.079C56.0853 149.576 50.7125 162.432 50.6279 175.862V217.603C49.4597 217.312 48.2415 217.283 47.0607 217.518C45.88 217.754 44.7661 218.248 43.7988 218.965C42.8316 219.682 42.0351 220.604 41.4664 221.665C40.8977 222.726 40.571 223.9 40.5098 225.103V335.83C40.5705 337.032 40.8968 338.207 41.4653 339.268C42.0338 340.33 42.8304 341.252 43.7979 341.969C44.7653 342.686 45.8796 343.18 47.0606 343.415C48.2416 343.65 49.4601 343.621 50.6284 343.329V401.901C50.6281 402.886 50.8219 403.862 51.1988 404.772C51.5756 405.682 52.128 406.509 52.8245 407.205C53.521 407.902 54.3479 408.454 55.2579 408.831C56.168 409.208 57.1434 409.402 58.1284 409.401H102.166C105.342 420.974 112.23 431.183 121.773 438.459C131.315 445.736 142.984 449.677 154.984 449.677C166.984 449.677 178.652 445.736 188.195 438.459C197.737 431.182 204.626 420.973 207.802 409.401L282.316 409.402C285.414 421.044 292.273 431.336 301.825 438.678C311.376 446.02 323.086 450 335.134 450C347.181 450 358.891 446.02 368.443 438.678C377.995 431.336 384.853 421.044 387.952 409.402H431.989C432.974 409.402 433.95 409.208 434.86 408.831C435.77 408.455 436.597 407.902 437.293 407.206C437.99 406.509 438.542 405.682 438.919 404.772C439.296 403.862 439.489 402.887 439.489 401.902V175.862C439.488 163.596 435.043 151.746 426.977 142.506C418.911 133.265 407.77 127.261 395.617 125.603ZM424.489 175.862V280.627H401.941V142.777C408.574 145.409 414.266 149.967 418.285 155.864C422.304 161.761 424.464 168.726 424.489 175.862ZM362.675 280.627C353.222 232.243 283.158 232.306 273.743 280.629L237.34 280.627V255.601C237.341 254.616 237.147 253.64 236.77 252.73C236.393 251.82 235.841 250.993 235.144 250.297C234.448 249.6 233.621 249.048 232.711 248.671C231.801 248.294 230.825 248.1 229.84 248.101H152.662C151.677 248.1 150.701 248.294 149.791 248.671C148.881 249.048 148.054 249.6 147.358 250.297C146.661 250.993 146.109 251.82 145.732 252.73C145.355 253.64 145.161 254.616 145.162 255.601V280.627H129.671V225.103C129.671 224.118 129.477 223.142 129.1 222.232C128.724 221.322 128.171 220.495 127.475 219.799C126.778 219.102 125.951 218.55 125.041 218.173C124.131 217.796 123.156 217.602 122.171 217.603H105.263V140.127H386.941V280.627H362.675ZM347.17 280.627H289.247C291.166 274.446 295.011 269.04 300.222 265.201C305.434 261.362 311.736 259.291 318.209 259.291C324.681 259.291 330.984 261.362 336.195 265.201C341.406 269.04 345.252 274.446 347.17 280.627ZM160.161 280.627V263.101H222.34V280.627H160.161ZM58.2005 328.33C58.1533 328.315 58.1022 328.315 58.055 328.33H55.5094V232.603H114.671V287.928C114.824 288.254 114.561 327.938 114.671 328.33L58.2005 328.33ZM184.46 84.917V49.0064C184.46 47.9441 184.883 46.9255 185.634 46.1744C186.385 45.4232 187.404 45.0009 188.466 45H301.651C302.713 45.0009 303.732 45.4232 304.483 46.1744C305.234 46.9255 305.656 47.9441 305.657 49.0064V84.917C305.656 85.9793 305.234 86.9978 304.483 87.749C303.732 88.5001 302.713 88.9225 301.651 88.9234C301.505 88.9234 271.99 88.9229 271.868 88.9234C271.721 88.9234 218.227 88.9234 218.104 88.9234H188.466C187.404 88.9225 186.385 88.5001 185.634 87.749C184.883 86.9978 184.46 85.9793 184.46 84.917ZM225.677 103.923H264.44V125.127H225.677V103.923ZM65.6278 175.862C65.6784 168.361 68.0835 161.065 72.5037 155.004C76.9239 148.943 83.1358 144.423 90.2628 142.083V217.603H65.6278V175.862ZM154.983 435C102.472 433.33 102.477 357.189 154.984 355.525C207.502 357.197 207.482 433.338 154.983 435ZM335.133 435C282.622 433.33 282.627 357.189 335.134 355.525C387.652 357.197 387.632 433.338 335.133 435ZM389.827 394.402C386.282 323.037 283.934 323.135 280.439 394.403L209.677 394.402C209.46 380.039 203.603 366.338 193.369 356.257C183.136 346.177 169.348 340.527 154.983 340.527C140.619 340.527 126.831 346.177 116.597 356.257C106.363 366.338 100.506 380.039 100.289 394.402H65.6278V343.33H122.171C123.156 343.33 124.131 343.136 125.041 342.76C125.951 342.383 126.778 341.83 127.475 341.134C128.171 340.437 128.724 339.611 129.1 338.7C129.477 337.79 129.671 336.815 129.671 335.83V295.627H424.489V394.402H389.827Z" fill="url(#paint0_linear_1255_18611)"/>
<path d="M335.134 368.796C328.167 368.874 321.512 371.697 316.613 376.651C311.714 381.605 308.966 388.292 308.966 395.259C308.966 402.227 311.714 408.913 316.614 413.867C321.513 418.821 328.168 421.643 335.135 421.721C342.102 421.643 348.758 418.821 353.657 413.867C358.556 408.912 361.304 402.226 361.303 395.258C361.303 388.291 358.555 381.605 353.656 376.65C348.757 371.696 342.102 368.874 335.134 368.796ZM335.134 406.721C332.123 406.678 329.25 405.451 327.136 403.306C325.022 401.161 323.837 398.27 323.837 395.259C323.837 392.247 325.022 389.356 327.136 387.211C329.25 385.067 332.124 383.84 335.135 383.796C338.146 383.84 341.019 385.067 343.133 387.212C345.247 389.357 346.433 392.247 346.432 395.259C346.432 398.271 345.247 401.161 343.133 403.306C341.019 405.451 338.146 406.678 335.134 406.721ZM154.984 368.796C148.017 368.874 141.362 371.697 136.463 376.651C131.564 381.605 128.816 388.292 128.816 395.259C128.816 402.227 131.564 408.913 136.463 413.867C141.363 418.821 148.018 421.643 154.985 421.721C161.952 421.643 168.607 418.821 173.507 413.867C178.406 408.912 181.153 402.226 181.153 395.258C181.153 388.291 178.405 381.605 173.506 376.65C168.607 371.696 161.951 368.874 154.984 368.796ZM154.984 406.721C151.973 406.678 149.1 405.451 146.986 403.306C144.872 401.161 143.687 398.27 143.687 395.259C143.687 392.247 144.872 389.356 146.986 387.211C149.1 385.067 151.974 383.84 154.985 383.796C157.996 383.84 160.869 385.067 162.983 387.212C165.097 389.357 166.282 392.247 166.282 395.259C166.282 398.271 165.097 401.161 162.983 403.306C160.869 405.451 157.996 406.678 154.984 406.721ZM97.2804 244.519H72.9017C70.9379 244.557 69.0675 245.364 67.6923 246.767C66.317 248.169 65.5467 250.055 65.5468 252.019C65.5469 253.984 66.3173 255.869 67.6926 257.272C69.068 258.674 70.9385 259.481 72.9023 259.519H97.2804C99.2442 259.481 101.115 258.674 102.49 257.271C103.865 255.869 104.636 253.983 104.636 252.019C104.636 250.055 103.865 248.169 102.49 246.767C101.115 245.364 99.2442 244.557 97.2804 244.519ZM97.2804 272.966H72.9017C70.9373 273.004 69.0659 273.81 67.6898 275.213C66.3137 276.615 65.5429 278.502 65.543 280.467C65.543 282.431 66.314 284.318 67.6902 285.72C69.0663 287.123 70.9378 287.929 72.9023 287.966H97.2804C99.2442 287.928 101.115 287.121 102.49 285.719C103.865 284.316 104.636 282.431 104.636 280.466C104.636 278.502 103.865 276.616 102.49 275.214C101.115 273.812 99.2442 273.005 97.2804 272.966ZM97.2804 301.414H72.9017C70.9373 301.451 69.0659 302.258 67.6898 303.66C66.3137 305.063 65.5429 306.949 65.543 308.914C65.543 310.879 66.314 312.765 67.6902 314.167C69.0663 315.57 70.9378 316.376 72.9023 316.414H97.2804C99.2442 316.375 101.115 315.568 102.49 314.166C103.865 312.764 104.636 310.878 104.636 308.914C104.636 306.949 103.865 305.064 102.49 303.661C101.115 302.259 99.2442 301.452 97.2804 301.414ZM318.237 184.417C311.27 184.494 304.615 187.317 299.716 192.271C294.817 197.225 292.069 203.912 292.069 210.879C292.069 217.847 294.817 224.533 299.717 229.487C304.616 234.442 311.271 237.264 318.238 237.341C325.205 237.263 331.861 234.441 336.76 229.487C341.659 224.533 344.407 217.846 344.406 210.879C344.406 203.911 341.658 197.225 336.759 192.271C331.86 187.316 325.205 184.494 318.237 184.417ZM318.237 222.341C315.226 222.298 312.353 221.071 310.239 218.926C308.125 216.781 306.94 213.89 306.94 210.879C306.94 207.867 308.125 204.976 310.239 202.832C312.353 200.687 315.227 199.46 318.238 199.417C321.249 199.46 324.122 200.687 326.236 202.832C328.35 204.977 329.536 207.868 329.535 210.879C329.535 213.891 328.35 216.781 326.236 218.926C324.122 221.071 321.249 222.298 318.237 222.341ZM283.155 74.458C285.118 74.4197 286.989 73.6126 288.364 72.2102C289.739 70.8078 290.51 68.9219 290.509 66.9577C290.509 64.9936 289.739 63.1078 288.364 61.7055C286.988 60.3032 285.118 59.4962 283.154 59.458H206.964C205 59.4964 203.13 60.3034 201.755 61.7058C200.38 63.1082 199.609 64.9941 199.609 66.9583C199.609 68.9224 200.38 70.8082 201.755 72.2105C203.13 73.6129 205.001 74.4198 206.965 74.458H283.155Z" fill="url(#paint1_linear_1255_18611)"/>
<path d="M43.3333 0L0 43.3333V130L130 0H43.3333Z" fill="#FF5757"/>
<path d="M22.3181 59.6088L11.967 54.119L11.9048 54.1812C12.1028 54.3607 12.402 54.6323 12.8025 54.996C13.203 55.3505 13.6265 55.7326 14.0731 56.1423C14.5196 56.552 14.9155 56.9295 15.2608 57.2748L19.9564 61.9704L18.0437 63.8832L7.94805 53.7876L10.8621 50.8735L20.9715 56.2045L21.0129 56.163L15.827 45.9086L18.7411 42.9945L28.8367 53.0902L26.8411 55.0858L22.0626 50.3073C21.7449 49.9897 21.3835 49.6191 20.9784 49.1955C20.5779 48.7674 20.2004 48.3577 19.8459 47.9664C19.4869 47.5705 19.2176 47.2736 19.038 47.0756L18.9759 47.1377L24.2792 57.6477L22.3181 59.6088Z" fill="white"/>
<path d="M35.4865 36.3171C36.2645 37.0951 36.8768 37.9007 37.3234 38.7339C37.7653 39.5626 38.0185 40.405 38.0829 41.2613C38.152 42.113 38.0093 42.9646 37.6548 43.8163C37.2957 44.6633 36.7042 45.4989 35.8801 46.3229C35.0561 47.147 34.2206 47.7385 33.3735 48.0976C32.5218 48.4521 31.6679 48.5971 30.8116 48.5326C29.96 48.4636 29.1175 48.2058 28.2843 47.7592C27.451 47.3127 26.6431 46.6981 25.8605 45.9155C24.8155 44.8705 24.0766 43.791 23.6439 42.6769C23.2111 41.5536 23.1375 40.4212 23.4229 39.2795C23.7083 38.1378 24.4012 37.0168 25.5014 35.9166C26.5971 34.8209 27.7111 34.135 28.8436 33.8588C29.9807 33.578 31.1086 33.6562 32.2272 34.0936C33.3505 34.5263 34.4369 35.2675 35.4865 36.3171ZM28.1185 43.6851C28.8229 44.3894 29.518 44.9096 30.204 45.2457C30.8899 45.5725 31.5597 45.6853 32.2134 45.584C32.8625 45.4782 33.4863 45.126 34.0848 44.5275C34.6924 43.9199 35.0492 43.2915 35.1551 42.6424C35.2564 41.9887 35.139 41.3235 34.8029 40.6467C34.4669 39.9608 33.9466 39.2657 33.2423 38.5613C32.1835 37.5025 31.1523 36.8672 30.1487 36.6554C29.1451 36.4437 28.1899 36.7912 27.283 37.6981C26.6799 38.3012 26.3255 38.9319 26.2196 39.5902C26.1137 40.2393 26.2265 40.9091 26.5579 41.5997C26.8894 42.281 27.4096 42.9761 28.1185 43.6851Z" fill="white"/>
<path d="M32.5449 29.1908L35.6868 26.0488C37.031 24.7046 38.2372 23.876 39.3052 23.5629C40.3732 23.2499 41.3814 23.5675 42.3297 24.5159C42.7118 24.898 42.9949 25.3054 43.1791 25.7381C43.3678 26.1662 43.4461 26.5944 43.4139 27.0225C43.3816 27.4506 43.2297 27.8603 42.9581 28.2516L43.0272 28.3207C43.4323 28.0537 43.8558 27.8695 44.2978 27.7683C44.7351 27.6624 45.1954 27.69 45.6788 27.8511C46.1622 28.0031 46.6686 28.3437 47.198 28.8731C47.8103 29.4854 48.1855 30.1598 48.3236 30.8964C48.4617 31.633 48.3696 32.3972 48.0474 33.189C47.7251 33.9716 47.1819 34.745 46.4177 35.5092L42.6405 39.2864L32.5449 29.1908ZM38.6837 31.0483L39.9267 29.8053C40.5482 29.1839 40.8819 28.6568 40.9279 28.224C40.9694 27.7867 40.799 27.377 40.417 26.9949C40.0303 26.6082 39.6113 26.4747 39.1602 26.5944C38.709 26.7048 38.1773 27.0662 37.565 27.6785L36.4395 28.8041L38.6837 31.0483ZM40.3824 32.747L43.0134 35.378L44.4082 33.9831C45.0527 33.3386 45.3773 32.7654 45.3819 32.2636C45.3865 31.7619 45.1793 31.3015 44.7604 30.8826C44.5118 30.634 44.2379 30.4706 43.9387 30.3923C43.6394 30.314 43.3057 30.3532 42.9374 30.5097C42.5737 30.6616 42.164 30.9654 41.7083 31.4212L40.3824 32.747Z" fill="white"/>
<path d="M52.1422 29.7846L42.0466 19.689L44.1873 17.5484L54.2829 27.644L52.1422 29.7846Z" fill="white"/>
<path d="M56.824 25.1028L46.7284 15.0072L48.8691 12.8665L57.1969 21.1944L61.2918 17.0995L63.0596 18.8673L56.824 25.1028Z" fill="white"/>
<path d="M70.6347 11.2921L64.8204 17.1064L54.7248 7.01082L60.5391 1.19652L62.2931 2.95048L58.6194 6.62412L60.836 8.84073L64.2542 5.42259L66.0081 7.17655L62.59 10.5947L65.1933 13.198L68.8669 9.52436L70.6347 11.2921Z" fill="white"/>
<path d="M51.0374 53.1247L57.701 66.6522L55.367 68.9862L41.8464 62.3157L44.0077 60.1543L51.9143 64.263C52.0478 64.332 52.2918 64.4701 52.6463 64.6773C52.9962 64.8799 53.3645 65.1008 53.7512 65.3402C54.1379 65.5704 54.4463 65.773 54.6765 65.9479C54.5015 65.7177 54.2944 65.4139 54.055 65.0364C53.8202 64.6543 53.5992 64.2906 53.3921 63.9453C53.1849 63.5909 53.0445 63.3446 52.9709 63.2065L48.876 55.286L51.0374 53.1247Z" fill="white"/>
<path d="M68.5907 55.7625L65.4557 54.0914L61.7752 57.772L63.4463 60.907L61.1399 63.2134L54.566 49.5132L57.1831 46.8961L70.8971 53.4561L68.5907 55.7625ZM63.1493 52.807L60.0695 51.1912C59.867 51.0807 59.6046 50.9426 59.2823 50.7769C58.9601 50.6019 58.6332 50.427 58.3018 50.2521C57.9703 50.0679 57.6872 49.9045 57.4524 49.7618C57.5951 49.9966 57.7655 50.2958 57.9634 50.6595C58.1614 51.0139 58.3478 51.3523 58.5228 51.6746C58.6977 51.9968 58.822 52.227 58.8956 52.3651L60.5184 55.438L63.1493 52.807Z" fill="white"/>
<path d="M81.1308 43.2224L78.4101 45.9431L66.381 42.6976L66.3189 42.7598C66.6549 43.059 66.991 43.3628 67.3271 43.6713C67.6631 43.9797 67.9992 44.2881 68.3352 44.5966C68.6667 44.9004 69.0005 45.2066 69.3365 45.515L74.0874 50.2659L72.1746 52.1786L62.079 42.083L64.779 39.3831L76.7252 42.5595L76.7736 42.5112C76.4513 42.2073 76.1291 41.9081 75.8068 41.6135C75.4846 41.3189 75.1623 41.0242 74.8401 40.7296C74.5224 40.4304 74.2048 40.1311 73.8871 39.8319L69.1086 35.0534L71.0352 33.1268L81.1308 43.2224Z" fill="white"/>
<defs>
<linearGradient id="paint0_linear_1255_18611" x1="239.999" y1="30" x2="239.999" y2="450" gradientUnits="userSpaceOnUse">
<stop stop-color="#232D3F"/>
<stop offset="1" stop-color="#0189EC"/>
</linearGradient>
<linearGradient id="paint1_linear_1255_18611" x1="213.423" y1="59.458" x2="213.423" y2="421.721" gradientUnits="userSpaceOnUse">
<stop stop-color="#232D3F"/>
<stop offset="1" stop-color="#0189EC"/>
</linearGradient>
</defs>
</svg>
