<svg width="480" height="480" viewBox="0 0 480 480" fill="none" xmlns="http://www.w3.org/2000/svg">
<rect x="0.075" y="0.075" width="479.85" height="479.85" stroke="#0B81DA" stroke-opacity="0.5" stroke-width="0.15"/>
<path d="M206.664 340.001H139.998C135.398 340.001 131.665 336.268 131.665 331.668V198.336C131.665 156.986 165.314 123.337 206.664 123.337C211.264 123.337 214.997 127.07 214.997 131.67V331.668C214.997 336.268 211.264 340.001 206.664 340.001ZM148.331 323.335H198.33V140.595C170.098 144.653 148.331 168.994 148.331 198.336V323.335Z" fill="url(#paint0_linear_1255_18628)"/>
<path d="M206.664 440H173.323C171.114 440 168.989 439.125 167.431 437.558C165.873 435.992 164.989 433.875 164.989 431.667L164.998 331.668C164.998 327.068 168.731 323.335 173.331 323.335H206.664C211.264 323.335 214.997 327.068 214.997 331.668V431.667C214.997 436.267 211.264 440 206.664 440ZM181.656 423.333H198.33V340.001H181.664L181.656 423.333ZM431.651 148.336C430.443 148.336 429.226 148.078 428.06 147.52L239.996 57.5706L51.9331 147.52C47.7915 149.486 42.7999 147.745 40.8167 143.595C38.8334 139.436 40.5917 134.462 44.7416 132.478L236.405 40.8125C238.68 39.7292 241.321 39.7292 243.596 40.8125L435.259 132.478C439.409 134.462 441.168 139.436 439.184 143.595C437.743 146.595 434.759 148.336 431.651 148.336Z" fill="url(#paint1_linear_1255_18628)"/>
<path d="M289.995 264.993C283.254 264.993 276.679 263.844 270.471 261.577C247.305 253.519 231.663 231.436 231.663 206.661V148.328C231.663 140.97 234.888 134.012 240.513 129.245C246.121 124.495 253.546 122.478 260.863 123.687C272.712 125.62 281.662 136.611 281.662 149.245V181.661C281.662 183.886 282.512 185.936 284.054 187.436C285.712 189.144 287.77 189.994 289.995 189.994C294.595 189.994 298.329 186.253 298.329 181.661V149.245C298.329 136.611 307.278 125.628 319.153 123.687C326.42 122.478 333.87 124.495 339.47 129.245C345.103 134.012 348.328 140.961 348.328 148.328V206.661C348.328 222.311 342.244 236.969 331.195 247.919C325.136 254.06 317.562 258.835 309.353 261.635C303.312 263.835 296.737 264.993 289.995 264.993ZM256.638 140.003C254.654 140.003 252.796 140.678 251.279 141.953C249.405 143.553 248.33 145.87 248.33 148.328V206.661C248.33 224.352 259.479 240.11 276.062 245.877C285.062 249.16 295.045 249.119 303.804 245.919C309.745 243.885 315.078 240.535 319.387 236.152C327.328 228.277 331.661 217.827 331.661 206.661V148.328C331.661 145.878 330.586 143.553 328.711 141.961C326.828 140.361 324.428 139.72 321.87 140.128C317.995 140.761 314.995 144.761 314.995 149.245V181.661C314.995 195.444 303.779 206.661 289.995 206.661C283.229 206.661 276.946 204.019 272.271 199.228C267.638 194.719 264.996 188.428 264.996 181.661V149.245C264.996 144.761 261.996 140.761 258.154 140.136C257.638 140.045 257.138 140.003 256.638 140.003Z" fill="url(#paint2_linear_1255_18628)"/>
<path d="M306.662 440H273.329C268.721 440 264.996 436.267 264.996 431.667V253.744C264.996 251.019 266.321 248.477 268.554 246.919C270.787 245.36 273.637 244.985 276.187 245.919C284.946 249.119 295.054 249.119 303.804 245.919C306.362 244.985 309.195 245.369 311.437 246.919C313.67 248.477 314.995 251.019 314.995 253.744V431.667C314.995 436.267 311.27 440 306.662 440ZM281.662 423.333H298.329V264.394C292.845 265.193 287.145 265.193 281.662 264.394V423.333Z" fill="url(#paint3_linear_1255_18628)"/>
<path d="M431.66 440H48.3332C43.7333 440 40 436.267 40 431.667C40 427.067 43.7333 423.333 48.3332 423.333H431.66C436.268 423.333 439.993 427.067 439.993 431.667C439.993 436.267 436.268 440 431.66 440Z" fill="url(#paint4_linear_1255_18628)"/>
<path d="M50 0L0 50V150L150 0H50Z" fill="#FF5757"/>
<path d="M8.25879 88.8284C9.17489 87.9123 10.0404 87.2678 10.8552 86.8949C11.6746 86.5174 12.4526 86.4069 13.1892 86.5635C13.9258 86.72 14.6347 87.1389 15.316 87.8202C15.7764 88.2806 16.0917 88.7709 16.2621 89.2911C16.4324 89.8113 16.4946 90.3338 16.4485 90.8586C16.4025 91.3834 16.2897 91.8875 16.1102 92.3709L23.4782 93.8003L21.1027 96.1757L14.8189 94.7118L13.6795 95.8511L17.5534 99.725L15.4127 101.866L5.31711 91.7701L8.25879 88.8284ZM9.86082 90.7343L9.21172 91.3834L11.9393 94.111L12.6299 93.4205C13.3388 92.7115 13.7278 92.0877 13.7969 91.5491C13.8659 91.0013 13.6703 90.4972 13.2099 90.0368C12.7311 89.5581 12.2248 89.3831 11.6907 89.512C11.1613 89.6363 10.5514 90.0437 9.86082 90.7343Z" fill="white"/>
<path d="M30.563 86.7154L24.7487 92.5297L14.6531 82.4341L20.4674 76.6198L22.2214 78.3737L18.5477 82.0474L20.7644 84.264L24.1825 80.8458L25.9365 82.5998L22.5183 86.0179L25.1216 88.6213L28.7953 84.9476L30.563 86.7154Z" fill="white"/>
<path d="M35.8318 75.8395C36.4303 76.4379 36.8055 77.1031 36.9574 77.8351C37.1093 78.5671 37.0264 79.3313 36.7088 80.1277C36.3957 80.9195 35.8433 81.7113 35.0515 82.5031C34.7016 82.853 34.3357 83.1729 33.9536 83.463C33.5761 83.7484 33.1894 84.0016 32.7935 84.2226C32.3976 84.4343 31.9947 84.6116 31.585 84.7543L29.5963 82.7655C30.2868 82.4985 30.9751 82.1924 31.661 81.8471C32.3469 81.5018 32.9431 81.076 33.4495 80.5696C33.7993 80.2198 34.0341 79.8929 34.1538 79.5891C34.2781 79.2806 34.308 78.9975 34.2436 78.7397C34.1791 78.4819 34.0433 78.2494 33.8362 78.0423C33.583 77.7891 33.2814 77.6579 32.9316 77.6487C32.5817 77.6395 32.1789 77.7062 31.7231 77.8489C31.272 77.987 30.7702 78.1528 30.2178 78.3461C29.8725 78.4704 29.4835 78.5924 29.0508 78.7121C28.6134 78.8272 28.1554 78.8939 27.6766 78.9123C27.1978 78.9308 26.7145 78.8571 26.2265 78.6914C25.7385 78.5164 25.2643 78.1988 24.804 77.7384C24.2009 77.1354 23.8234 76.4817 23.6715 75.7773C23.5196 75.073 23.5863 74.3525 23.8718 73.616C24.1572 72.8702 24.6498 72.1474 25.3495 71.4477C25.8743 70.9229 26.4359 70.4855 27.0344 70.1357C27.6329 69.7766 28.3073 69.452 29.0577 69.162L30.0313 71.5167C29.3776 71.7929 28.816 72.0646 28.3464 72.3316C27.8723 72.594 27.4441 72.9162 27.062 73.2983C26.795 73.5653 26.6109 73.8369 26.5096 74.1131C26.4037 74.3847 26.3807 74.6471 26.4405 74.9003C26.4958 75.1489 26.6247 75.3745 26.8272 75.5771C27.0666 75.8164 27.3382 75.95 27.6421 75.9776C27.9459 75.996 28.3142 75.9407 28.7469 75.8118C29.1843 75.6783 29.716 75.5011 30.3421 75.2801C31.1016 75.0085 31.7968 74.8244 32.4275 74.7277C33.0582 74.6218 33.652 74.6494 34.2091 74.8106C34.7615 74.9671 35.3024 75.3101 35.8318 75.8395Z" fill="white"/>
<path d="M44.3599 72.9185L42.2192 75.0592L33.9052 66.7451L31.1638 69.4866L29.3822 67.705L37.0057 60.0815L38.7873 61.8631L36.0459 64.6045L44.3599 72.9185Z" fill="white"/>
<path d="M54.8353 62.4431L51.7003 60.772L48.0197 64.4526L49.6908 67.5876L47.3844 69.894L40.8106 56.1938L43.4277 53.5767L57.1417 60.1367L54.8353 62.4431ZM49.3939 59.4876L46.3141 57.8718C46.1116 57.7613 45.8492 57.6232 45.5269 57.4575C45.2047 57.2825 44.8778 57.1076 44.5463 56.9326C44.2149 56.7485 43.9318 56.5851 43.697 56.4424C43.8397 56.6772 44.01 56.9764 44.208 57.3401C44.4059 57.6945 44.5924 58.0329 44.7673 58.3552C44.9423 58.6774 45.0665 58.9076 45.1402 59.0457L46.763 62.1186L49.3939 59.4876Z" fill="white"/>
<path d="M56.5409 40.5463L63.0734 47.0787C63.7685 47.7739 64.2427 48.5565 64.4959 49.4265C64.7491 50.2874 64.7284 51.192 64.4337 52.1403C64.1437 53.0841 63.5291 54.0255 62.59 54.9646C61.255 56.2997 59.8969 56.9764 58.5158 56.9948C57.1348 57.0132 55.8826 56.4608 54.7593 55.3375L48.2545 48.8327L50.3883 46.6989L56.5685 52.8792C57.4018 53.7125 58.1568 54.1268 58.8335 54.1222C59.5102 54.1176 60.1823 53.7815 60.8499 53.114C61.3194 52.6444 61.6186 52.1841 61.7475 51.7329C61.881 51.2772 61.8488 50.8122 61.6509 50.338C61.4529 49.8639 61.0938 49.3667 60.5736 48.8465L54.4072 42.68L56.5409 40.5463Z" fill="white"/>
<path d="M61.9547 35.1325C62.8708 34.2164 63.7363 33.5719 64.5511 33.199C65.3705 32.8215 66.1485 32.711 66.8851 32.8675C67.6217 33.0241 68.3306 33.443 69.012 34.1243C69.4723 34.5847 69.7877 35.0749 69.958 35.5951C70.1283 36.1154 70.1905 36.6379 70.1444 37.1627C70.0984 37.6875 69.9856 38.1916 69.8061 38.6749L77.1741 40.1043L74.7986 42.4798L68.5148 41.0158L67.3754 42.1552L71.2493 46.0291L69.1086 48.1698L59.013 38.0742L61.9547 35.1325ZM63.5567 37.0384L62.9076 37.6875L65.6353 40.4151L66.3258 39.7245C67.0347 39.0156 67.4237 38.3918 67.4928 37.8532C67.5618 37.3054 67.3662 36.8013 66.9058 36.3409C66.4271 35.8622 65.9207 35.6872 65.3867 35.8161C64.8573 35.9404 64.2473 36.3478 63.5567 37.0384Z" fill="white"/>
<path d="M84.6249 32.6535L81.4899 30.9824L77.8094 34.6629L79.4805 37.798L77.1741 40.1043L70.6002 26.4041L73.2173 23.787L86.9313 30.3471L84.6249 32.6535ZM79.1835 29.698L76.1037 28.0821C75.9012 27.9717 75.6388 27.8335 75.3165 27.6678C74.9943 27.4929 74.6674 27.3179 74.336 27.143C74.0045 26.9589 73.7214 26.7954 73.4866 26.6527C73.6293 26.8875 73.7997 27.1867 73.9976 27.5504C74.1956 27.9049 74.382 28.2433 74.557 28.5655C74.7319 28.8878 74.8562 29.1179 74.9298 29.256L76.5526 32.3289L79.1835 29.698Z" fill="white"/>
<path d="M97.165 20.1134L94.4443 22.8341L82.4152 19.5886L82.3531 19.6507C82.6891 19.95 83.0252 20.2538 83.3613 20.5622C83.6973 20.8707 84.0334 21.1791 84.3694 21.4875C84.7009 21.7914 85.0347 22.0975 85.3707 22.406L90.1216 27.1568L88.2088 29.0696L78.1132 18.974L80.8132 16.274L92.7594 19.4505L92.8078 19.4021C92.4855 19.0983 92.1633 18.7991 91.841 18.5044C91.5188 18.2098 91.1965 17.9152 90.8743 17.6206C90.5566 17.3213 90.239 17.0221 89.9213 16.7229L85.1428 11.9444L87.0694 10.0178L97.165 20.1134Z" fill="white"/>
<path d="M103.608 13.6707L101.467 15.8114L93.153 7.49732L90.4116 10.2387L88.63 8.45717L96.2535 0.833671L98.0351 2.61525L95.2937 5.35667L103.608 13.6707Z" fill="white"/>
<defs>
<linearGradient id="paint0_linear_1255_18628" x1="240" y1="50" x2="239.996" y2="440.004" gradientUnits="userSpaceOnUse">
<stop stop-color="#232D3F"/>
<stop offset="1" stop-color="#0189EC"/>
</linearGradient>
<linearGradient id="paint1_linear_1255_18628" x1="240" y1="50" x2="239.996" y2="440.004" gradientUnits="userSpaceOnUse">
<stop stop-color="#232D3F"/>
<stop offset="1" stop-color="#0189EC"/>
</linearGradient>
<linearGradient id="paint2_linear_1255_18628" x1="240" y1="50" x2="239.996" y2="440.004" gradientUnits="userSpaceOnUse">
<stop stop-color="#232D3F"/>
<stop offset="1" stop-color="#0189EC"/>
</linearGradient>
<linearGradient id="paint3_linear_1255_18628" x1="240" y1="50" x2="239.996" y2="440.004" gradientUnits="userSpaceOnUse">
<stop stop-color="#232D3F"/>
<stop offset="1" stop-color="#0189EC"/>
</linearGradient>
<linearGradient id="paint4_linear_1255_18628" x1="240" y1="50" x2="239.996" y2="440.004" gradientUnits="userSpaceOnUse">
<stop stop-color="#232D3F"/>
<stop offset="1" stop-color="#0189EC"/>
</linearGradient>
</defs>
</svg>
