<svg width="480" height="480" viewBox="0 0 480 480" fill="none" xmlns="http://www.w3.org/2000/svg">
<rect x="0.075" y="0.075" width="479.85" height="479.85" stroke="#0B81DA" stroke-width="0.15"/>
<path d="M468.562 186.844L420.422 109.269C419.737 108.211 418.79 107.349 417.673 106.765C416.556 106.182 415.306 105.898 414.047 105.94H373.125V33.2879C373.156 32.346 372.991 31.4079 372.641 30.5328C372.291 29.6577 371.764 28.8646 371.092 28.2034C370.421 27.5422 369.619 27.0273 368.739 26.6911C367.858 26.355 366.918 26.2048 365.977 26.2501H114.023C113.082 26.2048 112.142 26.355 111.261 26.6911C110.381 27.0273 109.579 27.5422 108.908 28.2034C108.236 28.8646 107.709 29.6577 107.359 30.5328C107.009 31.4079 106.844 32.346 106.875 33.2879V105.938H75.4753C74.32 105.896 73.1713 106.129 72.1237 106.618C71.0761 107.107 70.1597 107.838 69.45 108.75L11.7872 186.434L11.7937 186.383C10.8325 187.65 10.3123 189.198 10.3125 190.789V220.355C10.3854 232.039 15.072 243.221 23.3515 251.466C31.6311 259.711 42.8329 264.351 54.5175 264.375H55.3472C62.8644 264.348 70.259 262.467 76.875 258.898V446.712C76.8365 447.65 76.9936 448.586 77.3362 449.46C77.6789 450.334 78.1996 451.127 78.8652 451.789C79.5309 452.451 80.327 452.967 81.2029 453.305C82.0788 453.642 83.0154 453.794 83.9531 453.75H396.047C396.985 453.794 397.921 453.642 398.797 453.305C399.673 452.967 400.469 452.451 401.135 451.789C401.8 451.127 402.321 450.334 402.664 449.46C403.006 448.586 403.163 447.65 403.125 446.712V258.893C409.794 262.49 417.253 264.373 424.83 264.375H425.66C437.401 264.304 448.633 259.574 456.889 251.225C465.144 242.876 469.748 231.592 469.688 219.85V190.788C469.689 189.394 469.299 188.027 468.562 186.844ZM409.868 120.938L448.728 183.75H392.596L373.125 147.931V120.938H409.868ZM119.307 162.188H192.011L185.288 183.75H105.569L119.307 162.188ZM100.312 198.75H183.75V228.281C182.812 251.179 164.893 269.902 142.07 270.016C119.17 269.899 100.312 251.176 100.312 228.315V198.75ZM198.75 198.75H281.25V228.281C281.252 233.698 280.188 239.063 278.117 244.068C276.046 249.074 273.01 253.623 269.181 257.455C265.353 261.287 260.807 264.328 255.803 266.403C250.799 268.478 245.436 269.548 240.019 269.55C234.602 269.553 229.237 268.488 224.232 266.417C219.226 264.347 214.677 261.31 210.845 257.481C207.013 253.653 203.972 249.107 201.897 244.103C199.822 239.099 198.752 233.736 198.75 228.319V198.75ZM201.005 183.75L207.728 162.188H272.273L278.995 183.75H201.005ZM294.71 183.75L287.989 162.188H363.926L375.551 183.75H294.71ZM297.188 198.75H380.625V228.281C380.534 239.313 376.115 249.868 368.32 257.674C360.524 265.48 349.974 269.912 338.943 270.017C316.044 269.899 297.188 251.176 297.188 228.315V198.75ZM121.875 41.2501H358.125V147.188H121.875V41.2501ZM79.2516 120.938H106.875V153.945L87.7678 183.75H32.7066L79.2516 120.938ZM55.2516 249.375H54.6094C46.8713 249.375 39.4473 246.314 33.9584 240.86C28.4694 235.405 25.3613 228.001 25.3125 220.263V198.75H84.375V219.897C84.4312 226.396 82.3082 232.727 78.345 237.878C78.1233 238.124 77.9181 238.385 77.7309 238.658C77.1609 239.352 76.5575 240.021 75.9206 240.668C73.2296 243.422 70.0154 245.611 66.4667 247.107C62.9179 248.602 59.1025 249.373 55.2516 249.375ZM91.875 438.75V254.459C96.5104 263.511 103.517 271.133 112.147 276.513C120.777 281.893 130.706 284.828 140.874 285.005C151.042 285.182 161.067 282.594 169.878 277.517C178.69 272.441 185.958 265.066 190.905 256.181C195.818 264.963 202.993 272.269 211.685 277.339C220.377 282.409 230.268 285.059 240.331 285.012C250.394 284.966 260.26 282.225 268.905 277.074C277.549 271.924 284.657 264.552 289.488 255.725C294.314 264.609 301.455 272.021 310.152 277.178C318.848 282.334 328.778 285.041 338.889 285.013C348.999 284.985 358.914 282.222 367.582 277.017C376.249 271.812 383.348 264.36 388.125 255.449V438.75H91.875ZM454.688 219.897C454.711 223.745 453.977 227.559 452.526 231.123C451.076 234.687 448.937 237.93 446.233 240.667C443.529 243.405 440.312 245.583 436.767 247.077C433.221 248.571 429.415 249.352 425.568 249.375H424.922C417.212 249.396 409.808 246.357 404.336 240.924C403.61 240.208 402.922 239.455 402.274 238.668C402.075 238.375 401.856 238.097 401.618 237.835C397.753 232.79 395.648 226.618 395.625 220.263V198.75H454.688V219.897Z" fill="url(#paint0_linear_1255_18615)"/>
<path d="M160.707 84.9376C156.444 83.0626 153.078 81.5738 153.078 78.9807C153.078 77.0316 154.926 74.9494 160.109 74.9494C162.582 74.897 165.022 75.5196 167.167 76.7504C168.135 77.3638 169.241 77.7245 170.384 77.7995C174.002 77.7995 175.503 73.487 175.503 71.1807C175.503 64.4523 162.68 64.112 160.109 64.112C151.035 64.112 140.44 68.3007 140.44 80.1057C140.44 90.6141 148.784 94.4898 155.487 97.6041C160.175 99.7801 164.215 101.66 164.215 105.157C164.215 108.464 160.549 109.638 157.408 109.638C153.492 109.638 151.162 107.845 149.109 106.263C147.592 105.095 146.283 104.087 144.659 104.087C141.427 104.087 139.089 108.13 139.089 110.856C139.089 116.3 147.755 121.074 157.634 121.074C169.489 121.074 176.853 114.512 176.853 103.956C176.854 92.0626 167.521 87.9451 160.707 84.9376ZM222.188 64.5657C219.273 64.5657 215.625 65.611 215.625 68.5594V86.2501H201.562V68.5594C201.562 65.611 198.383 64.5657 195.469 64.5657C192.554 64.5657 189.375 65.611 189.375 68.5594V116.26C189.375 119.056 192.426 120.329 195.469 120.329C198.512 120.329 201.562 119.056 201.562 116.26V96.5626H215.625V116.26C215.625 119.056 219.144 120.329 222.188 120.329C225.231 120.329 228.75 119.056 228.75 116.26V68.5594C228.75 65.611 225.102 64.5657 222.188 64.5657Z" fill="url(#paint1_linear_1255_18615)"/>
<path d="M261.525 64.5657C249.375 64.5657 242.812 71.0176 242.812 82.7344V102.609C242.812 114.328 249.375 120.778 261.525 120.778C273.726 120.778 280.312 114.325 280.312 102.609V82.7344C280.312 71.0176 273.726 64.5657 261.525 64.5657ZM255 82.7344C255 78.0685 256.938 75.7032 261.056 75.7032C265.224 75.7032 267.188 78.0685 267.188 82.7344V102.609C267.188 107.274 265.224 109.641 261.056 109.641C256.938 109.641 255 107.274 255 102.609V82.7344ZM314.681 64.6876H299.156C296.408 64.6876 294.375 66.2813 294.375 68.5594V116.26C294.375 119.056 297.426 120.329 300.469 120.329C303.512 120.329 306.562 119.056 306.562 116.26V100.313H313.931C326.132 100.313 332.812 94.1823 332.812 82.6594V82.2844C332.812 70.8582 326.398 64.6876 314.681 64.6876ZM313.931 90.9376H306.562V75.9376H313.931C318.041 75.9376 320.625 78.1341 320.625 82.7344V83.5594C320.625 88.1598 318.041 90.9376 313.931 90.9376Z" fill="url(#paint2_linear_1255_18615)"/>
<path d="M43.3333 0L0 50V150L130 0H43.3333Z" fill="#FF5757"/>
<path d="M18.8136 93.4521C19.453 94.0066 19.8746 94.6434 20.0781 95.3627C20.2817 96.082 20.2534 96.8502 19.9931 97.6672C19.7372 98.4792 19.2424 99.3083 18.5089 100.154C18.1848 100.528 17.8425 100.873 17.482 101.19C17.1257 101.501 16.758 101.781 16.3788 102.03C15.999 102.269 15.6098 102.475 15.2112 102.646L13.0862 100.804C13.756 100.489 14.4207 100.134 15.0803 99.7411C15.74 99.3479 16.3044 98.8808 16.7735 98.3397C17.0976 97.9658 17.3086 97.6231 17.4063 97.3115C17.5084 96.9951 17.5181 96.7105 17.4355 96.458C17.3529 96.2054 17.2009 95.9832 16.9795 95.7912C16.709 95.5567 16.3989 95.4473 16.0493 95.4629C15.6996 95.4786 15.3026 95.5738 14.8581 95.7486C14.4179 95.9184 13.9292 96.1194 13.3919 96.3515C13.0563 96.5001 12.677 96.6494 12.2539 96.7995C11.8258 96.9454 11.3737 97.0446 10.8974 97.097C10.4212 97.1494 9.93378 97.1103 9.43526 96.9796C8.93608 96.8398 8.44053 96.5567 7.94861 96.1302C7.3042 95.5716 6.8812 94.9464 6.6796 94.2546C6.47799 93.5628 6.49336 92.8394 6.7257 92.0844C6.95738 91.3203 7.39734 90.5643 8.04557 89.8166C8.53174 89.2558 9.06087 88.7797 9.63294 88.3881C10.2044 87.9874 10.854 87.6158 11.5819 87.2731L12.7205 89.5527C12.088 89.8747 11.5471 90.1855 11.0977 90.4852C10.6434 90.7807 10.2393 91.1325 9.88532 91.5408C9.63797 91.8261 9.4736 92.1101 9.39221 92.3929C9.3059 92.6713 9.3016 92.9347 9.37929 93.183C9.45207 93.427 9.59667 93.6429 9.81312 93.8305C10.0689 94.0523 10.3493 94.1661 10.6544 94.1721C10.9587 94.1689 11.3222 94.0876 11.7446 93.9282C12.1714 93.764 12.6891 93.5494 13.2979 93.2845C14.0363 92.9596 14.7166 92.7265 15.3388 92.5852C15.9604 92.4348 16.5547 92.4201 17.1218 92.5412C17.6839 92.6581 18.2479 92.9617 18.8136 93.4521Z" fill="white"/>
<path d="M31.1681 85.2542L29.1915 87.5343L24.5355 83.4978L20.8316 87.77L25.4876 91.8066L23.5045 94.094L12.7168 84.7416L14.6999 82.4541L18.9279 86.1196L22.6318 81.8473L18.4037 78.1818L20.3804 75.9018L31.1681 85.2542Z" fill="white"/>
<path d="M36.6152 68.0435C37.4465 68.7642 38.1145 69.5243 38.6192 70.3237C39.1189 71.1188 39.4314 71.9411 39.5565 72.7906C39.6859 73.6352 39.6041 74.4949 39.3111 75.3696C39.0131 76.24 38.4825 77.1155 37.7191 77.996C36.9557 78.8766 36.1643 79.526 35.345 79.9444C34.5206 80.3585 33.6792 80.5639 32.8205 80.5605C31.9661 80.5521 31.1074 80.3549 30.2445 79.9687C29.3817 79.5825 28.5321 79.0269 27.6958 78.3019C26.5792 77.3338 25.7654 76.3096 25.2546 75.2291C24.7431 74.1394 24.5891 73.015 24.7927 71.856C24.9962 70.6969 25.6076 69.5295 26.6269 68.3538C27.6419 67.183 28.7044 66.4197 29.8143 66.0636C30.9286 65.7027 32.0592 65.7006 33.2061 66.0573C34.3573 66.4091 35.4936 67.0712 36.6152 68.0435ZM29.7896 75.9166C30.5422 76.5691 31.2726 77.0386 31.9807 77.325C32.6881 77.6023 33.3643 77.6672 34.0091 77.5197C34.649 77.3679 35.2462 76.9723 35.8006 76.3328C36.3636 75.6835 36.6748 75.0313 36.7342 74.3763C36.7888 73.7171 36.6244 73.0619 36.2411 72.4108C35.8571 71.7505 35.2888 71.0941 34.5362 70.4416C33.4048 69.4607 32.331 68.9003 31.3149 68.7605C30.2988 68.6206 29.3707 69.0352 28.5306 70.0042C27.9719 70.6486 27.6632 71.3029 27.6044 71.9671C27.5449 72.6221 27.705 73.2822 28.0847 73.9474C28.4638 74.6035 29.0321 75.2599 29.7896 75.9166Z" fill="white"/>
<path d="M36.1618 57.6985C37.3687 56.3063 38.5494 55.5507 39.704 55.4315C40.8536 55.308 41.9523 55.7005 43.0001 56.6088C43.4723 57.0182 43.863 57.4819 44.1722 57.9999C44.4765 58.5135 44.6552 59.0777 44.7082 59.6924C44.7655 60.3021 44.6601 60.9604 44.3921 61.6672C44.1191 62.3697 43.6414 63.1144 42.959 63.9015L42.1082 64.8829L45.9452 68.2093L43.9621 70.4967L33.1744 61.1443L36.1618 57.6985ZM37.9336 59.4414L37.0317 60.4818L40.234 63.2581L40.8865 62.5054C41.2576 62.0774 41.523 61.657 41.6828 61.2441C41.8426 60.8312 41.8766 60.4342 41.7848 60.053C41.693 59.6719 41.4577 59.3171 41.079 58.9887C40.5477 58.5282 40.0262 58.3346 39.5146 58.4079C38.998 58.4771 38.471 58.8215 37.9336 59.4414Z" fill="white"/>
<path d="M54.7135 52.0426C55.353 52.597 55.7745 53.2339 55.9781 53.9532C56.1816 54.6725 56.1533 55.4407 55.8931 56.2577C55.6371 57.0697 55.1424 57.8988 54.4089 58.7449C54.0847 59.1188 53.7424 59.4639 53.3819 59.7804C53.0257 60.0919 52.6579 60.3719 52.2788 60.6205C51.8989 60.8599 51.5097 61.0653 51.1112 61.2368L48.9861 59.3944C49.6559 59.079 50.3206 58.7247 50.9803 58.3316C51.6399 57.9384 52.2043 57.4713 52.6734 56.9302C52.9975 56.5563 53.2085 56.2136 53.3063 55.902C53.4083 55.5855 53.4181 55.301 53.3355 55.0484C53.2528 54.7959 53.1008 54.5736 52.8795 54.3817C52.6089 54.1472 52.2988 54.0377 51.9492 54.0534C51.5996 54.0691 51.2025 54.1643 50.7581 54.3391C50.3179 54.5089 49.8291 54.7099 49.2918 54.942C48.9563 55.0905 48.5769 55.2399 48.1538 55.39C47.7258 55.5359 47.2736 55.6351 46.7974 55.6875C46.3211 55.7399 45.8337 55.7008 45.3352 55.5701C44.836 55.4303 44.3405 55.1472 43.8486 54.7207C43.2041 54.1621 42.7811 53.5368 42.5795 52.8451C42.3779 52.1533 42.3933 51.4299 42.6256 50.6749C42.8573 49.9108 43.2973 49.1548 43.9455 48.4071C44.4317 47.8463 44.9608 47.3702 45.5329 46.9786C46.1043 46.5779 46.754 46.2062 47.4818 45.8636L48.6204 48.1432C47.988 48.4651 47.4471 48.776 46.9977 49.0757C46.5434 49.3711 46.1392 49.723 45.7853 50.1313C45.5379 50.4166 45.3735 50.7006 45.2921 50.9833C45.2058 51.2618 45.2015 51.5252 45.2792 51.7735C45.352 52.0175 45.4966 52.2333 45.7131 52.421C45.9689 52.6428 46.2493 52.7566 46.5543 52.7626C46.8587 52.7593 47.2221 52.6781 47.6446 52.5187C48.0713 52.3545 48.5891 52.1399 49.1979 51.875C49.9362 51.55 50.6165 51.317 51.2387 51.1757C51.8603 51.0252 52.4546 51.0106 53.0217 51.1317C53.5839 51.2486 54.1478 51.5522 54.7135 52.0426Z" fill="white"/>
<path d="M67.0681 43.8447L65.0914 46.1247L60.4354 42.0882L56.7315 46.3605L61.3875 50.397L59.4045 52.6844L48.6167 43.332L50.5998 41.0446L54.8278 44.7101L58.5317 40.4378L54.3037 36.7723L56.2803 34.4923L67.0681 43.8447Z" fill="white"/>
<path d="M75.1603 34.5106L71.9144 33.0666L68.5048 36.9995L70.3945 40.0078L68.2579 42.4723L60.7268 29.274L63.1512 26.4775L77.2969 32.0461L75.1603 34.5106ZM69.5225 31.9494L66.3357 30.5566C66.1258 30.4608 65.8542 30.3417 65.521 30.1993C65.1871 30.0477 64.8487 29.8964 64.5056 29.7455C64.1619 29.5854 63.8679 29.4425 63.6236 29.3168C63.7826 29.5409 63.9738 29.8272 64.1971 30.1759C64.4197 30.5154 64.6298 30.8397 64.8272 31.1487C65.0246 31.4577 65.1649 31.6784 65.2482 31.811L67.0853 34.7607L69.5225 31.9494Z" fill="white"/>
<path d="M70.4177 18.1853C71.2664 17.2064 72.0838 16.502 72.8701 16.0721C73.6606 15.6373 74.4288 15.4718 75.1746 15.5756C75.9205 15.6793 76.6574 16.0468 77.3854 16.678C77.8774 17.1044 78.2268 17.5711 78.4336 18.0778C78.6405 18.5846 78.7396 19.1014 78.731 19.6281C78.7224 20.1549 78.6458 20.6657 78.501 21.1606L85.952 22.0627L83.7514 24.6009L77.3794 23.5874L76.3239 24.8049L80.4634 28.3936L78.4803 30.681L67.6926 21.3286L70.4177 18.1853ZM72.1512 19.9724L71.5499 20.666L74.4645 23.1929L75.1042 22.455C75.7609 21.6974 76.1046 21.0476 76.1352 20.5054C76.1651 19.9541 75.9341 19.4652 75.4422 19.0387C74.9306 18.5952 74.4131 18.4567 73.8896 18.6232C73.3703 18.7848 72.7909 19.2346 72.1512 19.9724Z" fill="white"/>
<path d="M92.5153 14.4921L87.129 20.705L76.3413 11.3526L81.7276 5.13966L83.6018 6.76449L80.1986 10.69L82.5672 12.7434L85.7337 9.09094L87.6079 10.7158L84.4414 14.3683L87.2232 16.7799L90.6264 12.8544L92.5153 14.4921Z" fill="white"/>
<defs>
<linearGradient id="paint0_linear_1255_18615" x1="287.812" y1="64.5625" x2="287.812" y2="120.775" gradientUnits="userSpaceOnUse">
<stop stop-color="#232D3F"/>
<stop offset="1" stop-color="#0189EC"/>
</linearGradient>
<linearGradient id="paint1_linear_1255_18615" x1="287.812" y1="64.5625" x2="287.812" y2="120.775" gradientUnits="userSpaceOnUse">
<stop stop-color="#232D3F"/>
<stop offset="1" stop-color="#0189EC"/>
</linearGradient>
<linearGradient id="paint2_linear_1255_18615" x1="287.812" y1="64.5625" x2="287.812" y2="120.775" gradientUnits="userSpaceOnUse">
<stop stop-color="#232D3F"/>
<stop offset="1" stop-color="#0189EC"/>
</linearGradient>
</defs>
</svg>
