<svg width="480" height="480" viewBox="0 0 480 480" fill="none" xmlns="http://www.w3.org/2000/svg">
<rect x="0.075" y="0.075" width="479.85" height="479.85" stroke="#0B81DA" stroke-opacity="0.5" stroke-width="0.15"/>
<path d="M195 90.0003C167.43 90.0003 145 112.24 145 139.69V155H135.62C135.414 154.988 135.206 154.988 135 155H105C96.78 155 90 161.78 90 170V370C90 378.22 96.78 385 105 385H135C135.21 385.014 135.42 385.014 135.63 385H378.44C384.7 385 390 379.69 390 373.44V244.06C390 237.81 384.7 232.5 378.44 232.5H355.94V224.37C355.951 219.935 355.085 215.542 353.392 211.442C351.7 207.343 349.214 203.618 346.078 200.482C342.942 197.346 339.218 194.86 335.118 193.168C331.019 191.476 326.625 190.61 322.19 190.62C320.38 190.62 318.61 190.98 316.87 191.25C314.619 190.7 312.316 190.385 310 190.31V170C310 161.78 303.22 155 295 155H265V139.69C265 112.24 242.57 90.0003 215 90.0003C211.644 89.9759 208.293 90.2908 205 90.9403C201.707 90.2908 198.356 89.9759 195 90.0003ZM205 101.56C222.3 105.95 235 121.09 235 139.69V155H175V139.69C175 121.09 187.7 105.95 205 101.56ZM182.81 102.19C172.08 111.29 165 124.56 165 139.69V155H155V139.69C155 121.89 166.66 107.29 182.81 102.19ZM227.19 102.19C243.34 107.29 255 121.89 255 139.69V155H245V139.69C245 124.56 237.92 111.29 227.19 102.19ZM105 165H120.94C120.34 166.62 120 168.18 120 170C119.98 172 118.3 174.83 115.31 176.25C112.31 177.68 107.7 177.68 104.69 176.25C101.69 174.83 100.01 172 100 170C100 169.29 100.07 168.73 100.31 168.12C100.695 167.194 101.346 166.403 102.181 165.847C103.016 165.292 103.997 164.997 105 165ZM135 165C135.21 165.014 135.42 165.014 135.63 165H165V180.94C159.15 182.99 155 188.49 155 195C155 203.22 161.78 210 170 210C178.22 210 185 203.22 185 195C185 188.49 180.85 182.99 175 180.94V165H255V180.94C249.15 182.99 245 188.49 245 195C245 203.22 251.78 210 260 210C268.22 210 275 203.22 275 195C275 188.49 270.85 182.99 265 180.94V165H295C297.86 165 300 167.14 300 170V191.88C285.85 196.01 275.31 208.95 275.31 224.38V232.5H271.56C271.457 232.497 271.353 232.497 271.25 232.5C271.04 232.487 270.83 232.487 270.62 232.5H251.56C245.3 232.5 240 237.81 240 244.06V373.44C240 373.99 240.23 374.46 240.31 375H135.63C135.42 374.987 135.21 374.987 135 375C134.359 375.027 133.719 374.922 133.12 374.69C132.194 374.306 131.403 373.655 130.847 372.82C130.292 371.985 129.997 371.003 130 370V327.5C130.052 327.085 130.052 326.665 130 326.25V251.56C130.003 251.457 130.003 251.354 130 251.25V170C130 169.29 130.07 168.73 130.31 168.12C130.695 167.194 131.346 166.403 132.181 165.847C133.016 165.292 133.997 164.997 135 165ZM100 184.69C100.13 184.75 100.18 184.94 100.31 185C103.343 186.422 106.651 187.159 110 187.159C113.349 187.159 116.657 186.422 119.69 185C119.82 184.94 119.87 184.75 120 184.69V251.25C119.97 251.563 119.97 251.878 120 252.19V326.56C119.97 326.873 119.97 327.188 120 327.5V370C120 371.71 120.4 373.46 120.94 375H105C104.339 375.017 103.681 374.899 103.067 374.653C102.453 374.408 101.895 374.04 101.428 373.573C100.96 373.105 100.592 372.547 100.347 371.933C100.102 371.319 99.9835 370.661 100 370V184.69ZM170 190C172.82 190 175 192.18 175 195C175 197.82 172.82 200 170 200C169.341 200.01 168.686 199.887 168.075 199.639C167.465 199.391 166.91 199.023 166.443 198.557C165.977 198.091 165.609 197.536 165.361 196.925C165.113 196.314 164.991 195.66 165 195C165 192.18 167.18 190 170 190ZM260 190C262.82 190 265 192.18 265 195C265 197.82 262.82 200 260 200C259.341 200.01 258.686 199.887 258.075 199.639C257.465 199.391 256.91 199.023 256.443 198.557C255.977 198.091 255.609 197.536 255.361 196.925C255.113 196.314 254.991 195.66 255 195C255 192.18 257.18 190 260 190ZM316.25 201.56C321.165 203.003 325.474 206.012 328.521 210.13C331.569 214.248 333.187 219.248 333.13 224.37V232.5H298.13V224.37C298.13 213.07 305.78 204.09 316.25 201.56ZM293.44 206.56C290.14 211.76 288.12 217.77 288.12 224.37V232.5H285.32V224.37C285.32 217.23 288.52 210.96 293.44 206.56ZM338.44 206.87C343.09 211.18 345.94 217.37 345.94 224.37V232.5H343.12V224.37C343.12 218 341.49 212 338.44 206.87ZM251.56 242.5H260C259.9 243.08 259.37 243.46 259.37 244.06C259.37 244.56 258.57 245.9 257.19 246.56C255.479 247.223 253.581 247.223 251.87 246.56C251.375 246.332 250.945 245.984 250.618 245.547C250.292 245.111 250.079 244.6 250 244.06C250 243.6 250.03 243.4 250.31 243.13C250.6 242.85 251.13 242.5 251.56 242.5ZM271.25 242.5C271.353 242.504 271.457 242.504 271.56 242.5H288.13V251.56C282.73 253.53 278.75 258.63 278.75 264.69C278.75 272.43 285.07 278.75 292.81 278.75C300.56 278.75 306.88 272.43 306.88 264.69C306.88 258.88 303.17 254.02 298.13 251.87V242.5H345.93V251.88C340.75 253.95 336.88 258.78 336.88 264.68C336.88 272.43 343.19 278.75 350.94 278.75C358.68 278.75 365.31 272.43 365.31 264.69C365.31 258.65 361.38 253.55 355.94 251.56V242.5H378.44C379.3 242.5 380 243.14 380 244.06V373.44C380 374.36 379.3 375 378.44 375H271.87C271.77 374.997 271.67 374.997 271.57 375C271.36 375 271.12 375.07 270.94 375C270.74 374.93 270.46 374.83 270.31 374.69C270.03 374.41 270 373.89 270 373.44V345.94C270.03 345.628 270.03 345.313 270 345V297.81C270.003 297.707 270.003 297.604 270 297.5V296.87C270.003 296.77 270.003 296.67 270 296.57V244.05C270 243.22 270.5 242.61 271.25 242.5ZM259.69 256.25L260 276.25V296.56C259.97 296.873 259.97 297.188 260 297.5V345.31C259.987 345.52 259.987 345.731 260 345.94V373.44C260 373.99 260.23 374.46 260.31 375H251.56C251.354 375.004 251.149 374.967 250.958 374.89C250.767 374.813 250.594 374.698 250.448 374.553C250.302 374.407 250.187 374.233 250.11 374.042C250.033 373.851 249.996 373.646 250 373.44V256.56C253.2 257.57 256.5 257.34 259.69 256.25ZM292.81 260.63C295.12 260.63 296.88 262.32 296.88 264.69C296.897 265.229 296.803 265.765 296.604 266.266C296.405 266.767 296.106 267.221 295.724 267.602C295.343 267.983 294.888 268.281 294.386 268.478C293.885 268.676 293.349 268.768 292.81 268.75C292.272 268.767 291.737 268.673 291.237 268.475C290.737 268.277 290.282 267.979 289.902 267.598C289.522 267.218 289.223 266.764 289.025 266.264C288.827 265.763 288.733 265.228 288.75 264.69C288.75 262.32 290.5 260.63 292.81 260.63ZM350.94 260.63C353.24 260.63 355.31 262.32 355.31 264.69C355.31 267.06 353.25 268.75 350.94 268.75C350.401 268.768 349.865 268.676 349.364 268.478C348.862 268.281 348.407 267.983 348.026 267.602C347.644 267.221 347.345 266.767 347.146 266.266C346.947 265.765 346.853 265.229 346.87 264.69C346.87 262.32 348.63 260.63 350.94 260.63Z" fill="url(#paint0_linear_1255_18631)"/>
<path d="M53.3333 0L0 57.1428V171.429L160 0H53.3333Z" fill="#FF5757"/>
<path d="M20.4822 81.6443C21.0976 82.2254 21.4917 82.8795 21.6646 83.6068C21.8375 84.3341 21.7766 85.1004 21.4819 85.9056C21.1917 86.7061 20.6623 87.5134 19.8935 88.3276C19.5538 88.6874 19.1972 89.0177 18.8236 89.3186C18.4544 89.6147 18.0751 89.8789 17.6857 90.1112C17.2961 90.3342 16.8985 90.5229 16.4931 90.6774L14.4481 88.7465C15.1307 88.4598 15.8098 88.134 16.4855 87.7692C17.1613 87.4044 17.745 86.9616 18.2366 86.4409C18.5763 86.0812 18.8016 85.7477 18.9125 85.4405C19.0279 85.1287 19.0497 84.8448 18.9779 84.589C18.9061 84.3331 18.7636 84.1046 18.5506 83.9035C18.2903 83.6577 17.9851 83.5352 17.6351 83.536C17.2851 83.5369 16.8844 83.6152 16.4329 83.7709C15.9859 83.9219 15.4891 84.102 14.9424 84.3111C14.6009 84.4453 14.2155 84.5784 13.7864 84.7104C13.3526 84.838 12.8966 84.9179 12.4186 84.95C11.9405 84.9822 11.4552 84.9224 10.9627 84.7708C10.4699 84.6099 9.98681 84.306 9.51343 83.8591C8.8933 83.2736 8.4972 82.631 8.32512 81.9313C8.15305 81.2316 8.19909 80.5095 8.46325 79.7651C8.72715 79.0114 9.19878 78.2748 9.87814 77.5553C10.3877 77.0156 10.9365 76.5623 11.5247 76.1954C12.1126 75.8193 12.7774 75.4755 13.5192 75.1641L14.56 77.4899C13.9145 77.7847 13.3609 78.0724 12.8992 78.3527C12.4328 78.6286 12.0141 78.9631 11.6431 79.356C11.3839 79.6305 11.2076 79.9073 11.1143 80.1863C11.0162 80.4608 11.0008 80.7238 11.0678 80.9752C11.1302 81.2221 11.2655 81.4439 11.4738 81.6405C11.72 81.8729 11.9953 81.9986 12.2998 82.0175C12.604 82.0272 12.9706 81.9614 13.3994 81.8201C13.8328 81.6741 14.3592 81.4817 14.9787 81.2428C15.7301 80.9495 16.4197 80.7455 17.0474 80.6308C17.6747 80.5068 18.2692 80.5174 18.8306 80.6624C19.3873 80.803 19.9378 81.1303 20.4822 81.6443Z" fill="white"/>
<path d="M33.1734 73.9779L31.1018 76.172L26.6213 71.9416L22.7395 76.053L27.22 80.2833L25.1417 82.4846L14.7605 72.6829L16.8388 70.4817L20.9075 74.3233L24.7893 70.2119L20.7206 66.3704L22.7922 64.1763L33.1734 73.9779Z" fill="white"/>
<path d="M39.3458 57.0138C40.1458 57.7691 40.7809 58.5568 41.2512 59.3769C41.7167 60.1925 41.994 61.0274 42.083 61.8814C42.1765 62.7307 42.0583 63.5861 41.7284 64.4476C41.3938 65.3046 40.8265 66.1568 40.0264 67.0042C39.2264 67.8515 38.4082 68.4668 37.5718 68.8501C36.7306 69.2288 35.8812 69.3983 35.0234 69.3585C34.1701 69.3139 33.3206 69.0804 32.4749 68.6579C31.6292 68.2355 30.804 67.6444 29.9992 66.8846C28.9246 65.87 28.1551 64.8121 27.6905 63.7109C27.2257 62.6005 27.1196 61.4706 27.3721 60.3212C27.6247 59.1718 28.285 58.0314 29.3532 56.9001C30.417 55.7734 31.5109 55.0558 32.635 54.7472C33.7635 54.4338 34.8932 54.4797 36.0239 54.8847C37.1592 55.285 38.2664 55.9947 39.3458 57.0138ZM32.1923 64.5902C32.9166 65.2741 33.6264 65.7741 34.3217 66.0903C35.0167 66.3974 35.6895 66.4909 36.34 66.3709C36.9858 66.2464 37.5992 65.8765 38.1802 65.2611C38.7702 64.6362 39.1088 63.9978 39.196 63.346C39.2785 62.6896 39.142 62.028 38.7867 61.3613C38.4311 60.6853 37.8911 60.0053 37.1669 59.3215C36.0781 58.2935 35.0291 57.6881 34.0198 57.5052C33.0106 57.3223 32.0657 57.6972 31.1852 58.6298C30.5997 59.2499 30.2635 59.8905 30.1766 60.5516C30.0894 61.2034 30.2213 61.8697 30.5725 62.5505C30.9234 63.222 31.4633 63.9019 32.1923 64.5902Z" fill="white"/>
<path d="M39.3316 46.6588C40.5965 45.3191 41.8082 44.6142 42.9668 44.5441C44.1206 44.4695 45.2017 44.9082 46.21 45.8603C46.6644 46.2893 47.0351 46.7692 47.3221 47.2998C47.6043 47.8259 47.7589 48.3971 47.7858 49.0135C47.8172 49.6251 47.6839 50.2783 47.3861 50.9731C47.0836 51.6634 46.5747 52.3872 45.8596 53.1446L44.9679 54.089L48.6603 57.5752L46.582 59.7765L36.2007 49.9748L39.3316 46.6588ZM41.0279 48.4753L40.0826 49.4765L43.1643 52.3861L43.8482 51.6619C44.237 51.25 44.52 50.8412 44.6972 50.4355C44.8744 50.0297 44.9252 49.6345 44.8497 49.2498C44.7742 48.8651 44.5541 48.5007 44.1896 48.1565C43.6784 47.6738 43.1656 47.4583 42.6513 47.5099C42.1322 47.557 41.5911 47.8788 41.0279 48.4753Z" fill="white"/>
<path d="M47.9533 37.5273C49.2182 36.1876 50.4299 35.4827 51.5885 35.4126C52.7423 35.338 53.8234 35.7767 54.8317 36.7287C55.2861 37.1578 55.6568 37.6376 55.9438 38.1682C56.226 38.6944 56.3806 39.2656 56.4075 39.882C56.4388 40.4936 56.3056 41.1468 56.0078 41.8415C55.7052 42.5318 55.1964 43.2557 54.4813 44.0131L53.5896 44.9575L57.282 48.4437L55.2037 50.6449L44.8224 40.8433L47.9533 37.5273ZM49.6496 39.3438L48.7043 40.345L51.786 43.2546L52.4699 42.5303C52.8587 42.1185 53.1417 41.7097 53.3189 41.3039C53.4961 40.8982 53.5469 40.5029 53.4714 40.1183C53.3958 39.7336 53.1758 39.3692 52.8113 39.025C52.3001 38.5423 51.7873 38.3267 51.273 38.3784C50.7539 38.4255 50.2128 38.7473 49.6496 39.3438Z" fill="white"/>
<path d="M63.8254 41.5134L53.4441 31.7118L55.5224 29.5106L65.9037 39.3122L63.8254 41.5134Z" fill="white"/>
<path d="M77.0663 27.4895L74.4248 30.2872L62.3075 27.3883L62.2472 27.4522C62.5917 27.7417 62.9363 28.0358 63.2811 28.3344C63.6259 28.6331 63.9706 28.9317 64.3154 29.2304C64.6555 29.5246 64.9979 29.821 65.3426 30.1197L70.2279 34.7322L68.3708 36.6991L57.9896 26.8975L60.611 24.1211L72.6435 26.9533L72.6904 26.9036C72.3596 26.6092 72.0289 26.3193 71.6983 26.0341C71.3677 25.7488 71.0371 25.4635 70.7066 25.1783C70.3805 24.8883 70.0543 24.5983 69.7282 24.3083L64.8145 19.669L66.685 17.6879L77.0663 27.4895Z" fill="white"/>
<path d="M77.4313 15.4242L81.3198 11.3058L86.7022 16.3876C86.3681 17.1019 85.9783 17.8039 85.533 18.4937C85.0829 19.179 84.507 19.8933 83.8053 20.6365C82.8309 21.6684 81.8005 22.352 80.7141 22.6872C79.6276 23.0223 78.5102 23.0015 77.3618 22.6246C76.2134 22.2477 75.0593 21.5117 73.8996 20.4167C72.8108 19.3887 72.0654 18.2909 71.6634 17.1235C71.2659 15.9513 71.2294 14.7572 71.5537 13.5413C71.8824 12.3206 72.5966 11.128 73.6961 9.9635C74.2145 9.41438 74.7855 8.92823 75.4089 8.50505C76.0323 8.08186 76.6442 7.74191 77.2448 7.48518L78.3152 9.87921C77.8548 10.0444 77.378 10.2792 76.8847 10.5835C76.3915 10.8878 75.9348 11.2624 75.5147 11.7074C74.9113 12.3465 74.5328 13.0412 74.3794 13.7917C74.2304 14.5375 74.2981 15.2908 74.5825 16.0518C74.8666 16.8035 75.366 17.5169 76.0808 18.1918C76.7578 18.8309 77.4461 19.3062 78.1459 19.6177C78.8409 19.9247 79.5253 20.0202 80.1989 19.9042C80.8679 19.7836 81.504 19.4038 82.1074 18.7648C82.4024 18.4523 82.6362 18.1762 82.809 17.9364C82.9814 17.6873 83.1405 17.4525 83.2861 17.2318L81.1204 15.187L79.2633 17.1539L77.4313 15.4242Z" fill="white"/>
<path d="M44.6459 88.1004C44.2481 88.5217 43.9779 88.9739 43.8352 89.4569C43.6922 89.9308 43.6695 90.4242 43.7672 90.9372C43.8693 91.4455 44.0844 91.9621 44.4127 92.4869C44.7409 93.0117 45.1772 93.5311 45.7216 94.0451C46.4554 94.7378 47.1675 95.2401 47.8581 95.5519C48.5484 95.8544 49.2118 95.9436 49.8484 95.8194C50.4803 95.6907 51.0822 95.3234 51.6543 94.7175C52.0521 94.2962 52.4026 93.8302 52.7057 93.3195C53.0133 92.804 53.3141 92.2151 53.6083 91.5527L55.4545 93.2958C55.2103 93.9338 54.9183 94.5132 54.5787 95.0342C54.2438 95.5596 53.8148 96.0993 53.2919 96.6531C52.2818 97.723 51.2303 98.3956 50.1375 98.6711C49.0445 98.9373 47.9439 98.8607 46.8357 98.4412C45.7229 98.0172 44.6339 97.3024 43.5687 96.2968C42.7829 95.5548 42.164 94.769 41.7118 93.9392C41.2597 93.1093 40.989 92.2628 40.8997 91.3995C40.8104 90.5363 40.9217 89.6788 41.2334 88.827C41.5452 87.9753 42.072 87.1565 42.8139 86.3707C43.3011 85.8547 43.8546 85.4013 44.4743 85.0104C45.0937 84.6104 45.7406 84.2809 46.4147 84.0221L47.5337 86.4217C46.9826 86.6355 46.4529 86.8741 45.9446 87.1374C45.4364 87.4007 45.0035 87.7217 44.6459 88.1004Z" fill="white"/>
<path d="M63.5817 85.4703L57.9367 91.4491L47.5555 81.6475L53.2005 75.6687L55.0041 77.3715L51.4374 81.1491L53.7167 83.3012L57.0353 79.7863L58.8389 81.4892L55.5203 85.0041L58.1973 87.5316L61.7639 83.754L63.5817 85.4703Z" fill="white"/>
<path d="M74.3287 74.0878L71.6872 76.8855L59.5699 73.9867L59.5095 74.0506C59.854 74.34 60.1987 74.6341 60.5435 74.9328C60.8882 75.2314 61.233 75.5301 61.5778 75.8288C61.9178 76.123 62.2602 76.4194 62.605 76.718L67.4903 81.3306L65.6332 83.2975L55.252 73.4958L57.8733 70.7195L69.9058 73.5517L69.9528 73.502C69.6219 73.2075 69.2912 72.9177 68.9607 72.6324C68.6301 72.3471 68.2995 72.0619 67.9689 71.7766C67.6428 71.4866 67.3167 71.1967 66.9906 70.9067L62.0769 66.2673L63.9474 64.2862L74.3287 74.0878Z" fill="white"/>
<path d="M80.5838 67.4629L78.5054 69.6641L69.9562 61.5922L67.2946 64.4111L65.4626 62.6814L72.8641 54.8423L74.6961 56.572L72.0345 59.3909L80.5838 67.4629Z" fill="white"/>
<path d="M77.2286 50.2197C78.118 49.2777 78.9646 48.6086 79.7684 48.2125C80.5767 47.8116 81.3512 47.6788 82.0919 47.8141C82.8327 47.9494 83.5534 48.3478 84.254 49.0093C84.7274 49.4563 85.0566 49.9373 85.2418 50.4524C85.427 50.9675 85.5042 51.488 85.4732 52.0139C85.4423 52.5398 85.344 53.047 85.1784 53.5353L92.5844 54.7526L90.2781 57.1952L83.9548 55.9123L82.8486 57.0839L86.8321 60.845L84.7538 63.0462L74.3726 53.2446L77.2286 50.2197ZM78.8847 52.0788L78.2545 52.7462L81.0592 55.3944L81.7297 54.6844C82.418 53.9554 82.7889 53.3207 82.8425 52.7803C82.8958 52.2307 82.6857 51.7324 82.2124 51.2855C81.72 50.8207 81.2088 50.6603 80.6787 50.8045C80.1531 50.944 79.5551 51.3687 78.8847 52.0788Z" fill="white"/>
<path d="M99.463 47.4673L93.818 53.4461L83.4367 43.6444L89.0817 37.6656L90.8853 39.3685L87.3186 43.1461L89.598 45.2981L92.9166 41.7833L94.7202 43.4862L91.4015 47.001L94.0785 49.5285L97.6452 45.751L99.463 47.4673Z" fill="white"/>
<defs>
<linearGradient id="paint0_linear_1255_18631" x1="240" y1="89.999" x2="240" y2="385.01" gradientUnits="userSpaceOnUse">
<stop stop-color="#232D3F"/>
<stop offset="1" stop-color="#0189EC"/>
</linearGradient>
</defs>
</svg>
