<svg width="480" height="480" viewBox="0 0 480 480" fill="none" xmlns="http://www.w3.org/2000/svg">
<rect x="0.075" y="0.075" width="479.85" height="479.85" stroke="#0B81DA" stroke-opacity="0.5" stroke-width="0.15"/>
<path fill-rule="evenodd" clip-rule="evenodd" d="M100 180H120V280H360V180H380V280H405C407.761 280 410 282.239 410 285V295C410 297.761 407.761 300 405 300H75C72.2386 300 70 297.761 70 295V285C70 282.239 72.2386 280 75 280H100V180ZM100 340V400H380V340H100ZM90 320C84.4772 320 80 324.477 80 330V410C80 415.523 84.4772 420 90 420H390C395.523 420 400 415.523 400 410V330C400 324.477 395.523 320 390 320H90Z" fill="url(#paint0_linear_1255_18608)"/>
<path fill-rule="evenodd" clip-rule="evenodd" d="M101.888 80L80.4354 139.129C80.1478 139.922 80 140.761 80 141.609V165.51C80 173.592 86.4747 180 94.2857 180C102.097 180 108.571 173.592 108.571 165.51C108.571 159.987 113.049 155.51 118.571 155.51C124.094 155.51 128.571 159.987 128.571 165.51C128.571 173.592 135.046 180 142.857 180C150.668 180 157.143 173.592 157.143 165.51C157.143 159.987 161.62 155.51 167.143 155.51C172.666 155.51 177.143 159.987 177.143 165.51C177.143 173.592 183.618 180 191.429 180C199.236 180 205.708 173.598 205.714 165.522C205.719 160.003 210.195 155.53 215.714 155.53C221.234 155.53 225.71 160.003 225.714 165.522C225.721 173.598 232.193 180 240 180C247.811 180 254.286 173.592 254.286 165.51C254.286 159.987 258.763 155.51 264.286 155.51C269.809 155.51 274.286 159.987 274.286 165.51C274.286 173.592 280.76 180 288.571 180C296.379 180 302.851 173.598 302.857 165.522C302.862 160.003 307.337 155.53 312.857 155.53C318.377 155.53 322.853 160.003 322.857 165.522C322.864 173.598 329.336 180 337.143 180C344.954 180 351.429 173.592 351.429 165.51C351.429 159.987 355.906 155.51 361.429 155.51C366.951 155.51 371.429 159.987 371.429 165.51C371.429 173.592 377.903 180 385.714 180C393.525 180 400 173.592 400 165.51V141.609C400 140.761 399.852 139.922 399.565 139.129L378.112 80H101.888ZM377.764 79.0395V79.0395ZM361.429 189.856C355.233 196.115 346.656 200 337.143 200C327.629 200 319.053 196.115 312.857 189.856C306.662 196.115 298.085 200 288.571 200C279.058 200 270.481 196.115 264.286 189.856C258.09 196.115 249.514 200 240 200C230.486 200 221.91 196.115 215.714 189.856C209.519 196.115 200.942 200 191.429 200C181.915 200 173.338 196.115 167.143 189.856C160.947 196.115 152.371 200 142.857 200C133.344 200 124.767 196.115 118.571 189.856C112.376 196.115 103.799 200 94.2857 200C75.2715 200 60 184.479 60 165.51V141.609C60 138.438 60.5528 135.29 61.6345 132.308L83.4363 72.2159C86.0829 64.921 93.0012 60 100.819 60H379.181C386.999 60 393.917 64.921 396.564 72.216L418.366 132.308C419.447 135.29 420 138.438 420 141.609V165.51C420 184.479 404.728 200 385.714 200C376.201 200 367.624 196.115 361.429 189.856Z" fill="url(#paint1_linear_1255_18608)"/>
<path d="M140 255C140 252.239 142.239 250 145 250H175C177.761 250 180 252.239 180 255V275C180 277.761 177.761 280 175 280H145C142.239 280 140 277.761 140 275V255Z" fill="url(#paint2_linear_1255_18608)"/>
<path d="M160 265C160 262.239 162.239 260 165 260H195C197.761 260 200 262.239 200 265V275C200 277.761 197.761 280 195 280H165C162.239 280 160 277.761 160 275V265ZM240 265C240 273.284 233.284 280 225 280C216.716 280 210 273.284 210 265C210 256.716 216.716 250 225 250C233.284 250 240 256.716 240 265Z" fill="url(#paint3_linear_1255_18608)"/>
<path d="M43.3333 0L0 43.3333V130L130 0H43.3333Z" fill="#FF5757"/>
<path d="M38.5685 56.5306C39.1669 57.129 39.5421 57.7942 39.694 58.5262C39.8459 59.2582 39.7631 60.0224 39.4454 60.8188C39.1324 61.6106 38.58 62.4024 37.7882 63.1942C37.4383 63.5441 37.0723 63.864 36.6902 64.154C36.3127 64.4395 35.926 64.6927 35.5301 64.9136C35.1342 65.1254 34.7314 65.3026 34.3217 65.4453L32.3329 63.4566C33.0235 63.1896 33.7117 62.8835 34.3976 62.5382C35.0836 62.1929 35.6797 61.7671 36.1861 61.2607C36.536 60.9108 36.7708 60.584 36.8905 60.2802C37.0148 59.9717 37.0447 59.6886 36.9802 59.4308C36.9158 59.173 36.78 58.9405 36.5728 58.7334C36.3196 58.4802 36.0181 58.349 35.6682 58.3398C35.3183 58.3305 34.9155 58.3973 34.4598 58.54C34.0086 58.6781 33.5068 58.8438 32.9544 59.0372C32.6091 59.1615 32.2201 59.2835 31.7874 59.4032C31.3501 59.5183 30.892 59.585 30.4133 59.6034C29.9345 59.6218 29.4511 59.5482 28.9631 59.3825C28.4752 59.2075 28.001 58.8899 27.5406 58.4295C26.9376 57.8265 26.5601 57.1728 26.4082 56.4684C26.2562 55.7641 26.323 55.0436 26.6084 54.307C26.8938 53.5613 27.3864 52.8385 28.0862 52.1388C28.611 51.614 29.1726 51.1766 29.7711 50.8267C30.3695 50.4677 31.0439 50.1431 31.7943 49.8531L32.768 52.2078C32.1143 52.484 31.5526 52.7556 31.0831 53.0226C30.6089 53.285 30.1808 53.6073 29.7987 53.9894C29.5317 54.2564 29.3475 54.528 29.2462 54.8042C29.1404 55.0758 29.1173 55.3382 29.1772 55.5914C29.2324 55.84 29.3613 56.0656 29.5639 56.2681C29.8033 56.5075 30.0749 56.641 30.3787 56.6687C30.6826 56.6871 31.0508 56.6318 31.4836 56.5029C31.9209 56.3694 32.4526 56.1922 33.0787 55.9712C33.8383 55.6996 34.5334 55.5155 35.1641 55.4188C35.7948 55.3129 36.3887 55.3405 36.9457 55.5017C37.4981 55.6582 38.039 56.0011 38.5685 56.5306Z" fill="white"/>
<path d="M47.0966 53.6096L44.9559 55.7503L36.6419 47.4362L33.9004 50.1776L32.1189 48.3961L39.7424 40.7726L41.5239 42.5541L38.7825 45.2956L47.0966 53.6096Z" fill="white"/>
<path d="M57.572 43.1342L54.4369 41.4631L50.7564 45.1436L52.4275 48.2787L50.1211 50.5851L43.5472 36.8849L46.1643 34.2677L59.8783 40.8278L57.572 43.1342ZM52.1305 40.1787L49.0508 38.5629C48.8482 38.4524 48.5858 38.3143 48.2636 38.1485C47.9413 37.9736 47.6145 37.7987 47.283 37.6237C46.9515 37.4396 46.6684 37.2762 46.4336 37.1335C46.5763 37.3682 46.7467 37.6675 46.9446 38.0311C47.1426 38.3856 47.329 38.724 47.504 39.0462C47.6789 39.3685 47.8032 39.5987 47.8769 39.7368L49.4996 42.8096L52.1305 40.1787Z" fill="white"/>
<path d="M61.1558 39.5503L51.0602 29.4547L53.2009 27.3141L61.5287 35.6419L65.6236 31.547L67.3913 33.3148L61.1558 39.5503Z" fill="white"/>
<path d="M69.1522 31.5539L59.0566 21.4583L61.1973 19.3177L69.5251 27.6455L73.62 23.5507L75.3877 25.3184L69.1522 31.5539Z" fill="white"/>
<defs>
<linearGradient id="paint0_linear_1255_18608" x1="200" y1="250" x2="200" y2="280" gradientUnits="userSpaceOnUse">
<stop stop-color="#435067"/>
<stop offset="1" stop-color="#0189EC"/>
</linearGradient>
<linearGradient id="paint1_linear_1255_18608" x1="240" y1="60" x2="240" y2="420" gradientUnits="userSpaceOnUse">
<stop stop-color="#232D3F"/>
<stop offset="1" stop-color="#0189EC"/>
</linearGradient>
<linearGradient id="paint2_linear_1255_18608" x1="200" y1="250" x2="200" y2="280" gradientUnits="userSpaceOnUse">
<stop stop-color="#435067"/>
<stop offset="1" stop-color="#0189EC"/>
</linearGradient>
<linearGradient id="paint3_linear_1255_18608" x1="200" y1="250" x2="200" y2="280" gradientUnits="userSpaceOnUse">
<stop stop-color="#435067"/>
<stop offset="1" stop-color="#0189EC"/>
</linearGradient>
</defs>
</svg>
