<svg width="480" height="480" viewBox="0 0 480 480" fill="none" xmlns="http://www.w3.org/2000/svg">
<rect x="0.075" y="0.075" width="479.85" height="479.85" stroke="#0B81DA" stroke-opacity="0.5" stroke-width="0.15"/>
<path d="M414 381.429H408V209.384L419.4 185.036C419.4 184.955 419.475 184.875 419.475 184.795C419.55 184.634 419.625 184.473 419.625 184.393C419.7 184.313 419.7 184.152 419.7 184.071C419.775 183.911 419.775 183.75 419.775 183.67C419.775 183.589 419.85 183.429 419.85 183.348C419.85 183.188 419.925 183.027 419.925 182.946C419.925 182.866 419.925 182.705 419.925 182.625C419.925 182.464 419.925 182.304 419.925 182.223C419.925 182.143 419.925 181.982 419.925 181.902C419.925 181.741 419.925 181.58 419.85 181.5C419.85 181.42 419.85 181.259 419.775 181.179C419.775 181.018 419.7 180.938 419.7 180.777C419.7 180.696 419.625 180.536 419.625 180.455C419.625 180.375 419.625 180.375 419.55 180.295L390 91.0179V66.4286C390 62.8929 387.3 60 384 60H96C92.7 60 90 62.8929 90 66.4286V91.0179L60.375 179.973C60.375 180.054 60.375 180.054 60.3 180.134C60.3 180.214 60.225 180.375 60.225 180.455C60.225 180.616 60.15 180.696 60.15 180.857C60.15 180.937 60.075 181.098 60.075 181.179C60.075 181.339 60.075 181.5 60 181.58C60 181.661 60 181.821 60 181.902C60 182.062 60 182.223 60 182.304C60 182.384 60 182.545 60 182.625C60 182.786 60 182.946 60.075 183.027C60.075 183.107 60.15 183.268 60.15 183.348C60.15 183.509 60.225 183.67 60.225 183.75C60.225 183.83 60.3 183.991 60.3 184.071C60.375 184.232 60.375 184.393 60.45 184.473C60.45 184.554 60.525 184.634 60.525 184.714L72 209.384V381.429H66C62.7 381.429 60 384.321 60 387.857V413.571C60 417.107 62.7 420 66 420H414C417.3 420 420 417.107 420 413.571V387.857C420 384.321 417.3 381.429 414 381.429ZM81.675 201.429L75.675 188.571H122.325L116.325 201.429H81.675ZM210 98.5714H270V175.714H210V98.5714ZM282 98.5714H319.5L340.05 175.714H282V98.5714ZM198 98.5714V175.714H139.95L160.5 98.5714H198ZM194.325 188.571L188.325 201.429H147.75L141.75 188.571H194.325ZM266.325 188.571L260.325 201.429H219.75L213.75 188.571H266.325ZM338.325 188.571L332.325 201.429H291.75L285.75 188.571H338.325ZM404.325 188.571L398.325 201.429H363.75L357.75 188.571H404.325ZM352.5 175.714L331.95 98.5714H379.8L405.525 175.714H352.5ZM102 72.8571H378V85.7143H102V72.8571ZM100.2 98.5714H148.05L127.5 175.714H74.55L100.2 98.5714ZM84 214.286H120C122.25 214.286 124.35 212.92 125.4 210.75L132 196.527L138.6 210.75C139.65 212.92 141.675 214.286 144 214.286H192C194.25 214.286 196.35 212.92 197.4 210.75L204 196.527L210.6 210.75C211.65 212.92 213.675 214.286 216 214.286H264C266.25 214.286 268.35 212.92 269.4 210.75L276 196.527L282.6 210.75C283.65 212.92 285.675 214.286 288 214.286H336C338.25 214.286 340.35 212.92 341.4 210.75L348 196.527L354.6 210.75C355.65 212.92 357.675 214.286 360 214.286H396V381.429H384V259.286C384 255.75 381.3 252.857 378 252.857H306C302.7 252.857 300 255.75 300 259.286V381.429H84V214.286ZM312 330H324C327.3 330 330 327.107 330 323.571C330 320.036 327.3 317.143 324 317.143H312V265.714H372V381.429H312V330ZM408 407.143H72V394.286H408V407.143ZM282 240H102C98.7 240 96 242.893 96 246.429V362.143C96 365.679 98.7 368.571 102 368.571H282C285.3 368.571 288 365.679 288 362.143V246.429C288 242.893 285.3 240 282 240ZM240 330H204V304.286H240V330ZM216 342.857V355.714H192V342.857H216ZM228 355.714V342.857H252V355.714H228ZM276 355.714H264V336.429C264 332.893 261.3 330 258 330H252V297.857C252 294.321 249.3 291.429 246 291.429H198C194.7 291.429 192 294.321 192 297.857V330H186C182.7 330 180 332.893 180 336.429V355.714H108V252.857H276V355.714ZM115.725 289.58C113.4 287.089 113.4 282.991 115.725 280.5L133.725 261.214C136.05 258.723 139.875 258.723 142.2 261.214C144.525 263.705 144.525 267.804 142.2 270.295L124.2 289.58C123 290.866 121.5 291.429 119.925 291.429C118.35 291.429 116.925 290.786 115.725 289.58ZM121.725 313.366L163.725 268.366C166.05 265.875 169.875 265.875 172.2 268.366C174.525 270.857 174.525 274.955 172.2 277.446L130.2 322.446C129 323.732 127.5 324.295 125.925 324.295C124.35 324.295 122.85 323.652 121.65 322.446C119.4 319.955 119.4 315.937 121.725 313.366Z" fill="url(#paint0_linear_1255_18625)"/>
<path d="M46.6667 0L0 50.2564V150.769L140 0H46.6667Z" fill="#FF5757"/>
<path d="M18.719 96.2573C19.3411 96.8311 19.7428 97.4807 19.9241 98.2059C20.1054 98.9312 20.0534 99.6981 19.7681 100.507C19.4872 101.31 18.9672 102.124 18.2079 102.947C17.8724 103.311 17.5196 103.645 17.1495 103.95C16.7839 104.251 16.4077 104.519 16.021 104.756C15.6339 104.984 15.2386 105.177 14.835 105.336L12.7677 103.429C13.4469 103.134 14.1222 102.801 14.7937 102.428C15.4651 102.056 16.0437 101.606 16.5292 101.08C16.8647 100.716 17.0861 100.38 17.1935 100.071C17.3052 99.7583 17.3237 99.4742 17.2489 99.2192C17.1742 98.9642 17.0291 98.7374 16.8137 98.5388C16.5505 98.296 16.244 98.177 15.894 98.1819C15.5441 98.1868 15.1443 98.2698 14.6946 98.4307C14.2494 98.5869 13.7547 98.7727 13.2105 98.9882C12.8706 99.1263 12.4868 99.2639 12.0592 99.4009C11.6269 99.5335 11.1719 99.6187 10.6943 99.6564C10.2166 99.6941 9.73067 99.64 9.23641 99.494C8.74178 99.3389 8.25519 99.0407 7.77665 98.5992C7.14977 98.021 6.74624 97.383 6.56605 96.6853C6.38587 95.9877 6.42352 95.2651 6.67902 94.5177C6.93415 93.761 7.3972 93.019 8.06817 92.2916C8.5714 91.7461 9.11495 91.2864 9.69882 90.9127C10.2823 90.5298 10.9431 90.1783 11.6812 89.8583L12.749 92.1719C12.1069 92.4742 11.5567 92.7682 11.0983 93.054C10.6351 93.3353 10.2203 93.6745 9.8539 94.0717C9.59787 94.3492 9.42482 94.628 9.33476 94.9081C9.23991 95.1838 9.22749 95.4469 9.29749 95.6975C9.36271 95.9436 9.5006 96.1638 9.71116 96.3581C9.95999 96.5876 10.2368 96.71 10.5415 96.7254C10.8458 96.7315 11.2116 96.6615 11.6387 96.5153C12.0703 96.3643 12.5945 96.1657 13.2111 95.9197C13.9592 95.6177 14.6463 95.4057 15.2726 95.2837C15.8985 95.1524 16.493 95.1561 17.0561 95.2946C17.6144 95.4288 18.1687 95.7497 18.719 96.2573Z" fill="white"/>
<path d="M27.1224 92.995L25.0698 95.2202L16.4274 87.248L13.7987 90.0977L11.9468 88.3894L19.2568 80.4648L21.1087 82.1731L18.48 85.0228L27.1224 92.995Z" fill="white"/>
<path d="M34.766 74.1514C35.5747 74.8975 36.219 75.6777 36.6987 76.4923C37.1737 77.3025 37.4607 78.134 37.5596 78.987C37.6629 79.8352 37.5546 80.6919 37.2348 81.5571C36.9101 82.418 36.3527 83.2767 35.5626 84.1333C34.7724 84.9899 33.9614 85.6146 33.1295 86.0075C32.2928 86.3961 31.4454 86.5754 30.5872 86.5455C29.7335 86.5108 28.8813 86.2872 28.0308 85.8746C27.1802 85.462 26.3482 84.8805 25.5346 84.1301C24.4484 83.128 23.6666 82.0792 23.1893 80.9834C22.7116 79.8785 22.5924 78.7499 22.8316 77.5977C23.0707 76.4454 23.7178 75.2974 24.7728 74.1537C25.8234 73.0148 26.9089 72.2845 28.0294 71.9629C29.1542 71.6365 30.2843 71.6692 31.4197 72.0611C32.5595 72.4482 33.6749 73.145 34.766 74.1514ZM27.701 81.8104C28.4331 82.4858 29.1487 82.9776 29.8476 83.2857C30.5461 83.5847 31.2199 83.6704 31.869 83.5428C32.5133 83.4109 33.1224 83.0338 33.6963 82.4117C34.279 81.7801 34.6101 81.1378 34.6898 80.485C34.7646 79.8277 34.6205 79.1678 34.2574 78.5051C33.894 77.8333 33.3462 77.1597 32.614 76.4843C31.5134 75.469 30.4574 74.8758 29.4461 74.7047C28.4348 74.5335 27.4944 74.9193 26.6248 75.862C26.0465 76.4889 25.7177 77.1334 25.6385 77.7954C25.5588 78.4483 25.6985 79.113 26.0576 79.7896C26.4162 80.457 26.964 81.1306 27.701 81.8104Z" fill="white"/>
<path d="M34.3602 64.0916C35.2386 63.1393 36.0774 62.4605 36.8765 62.0551C37.6801 61.6448 38.453 61.5031 39.1953 61.6298C39.9376 61.7565 40.6628 62.1465 41.3711 62.7998C41.8496 63.2412 42.1844 63.7184 42.3756 64.2313C42.5668 64.7442 42.6499 65.2638 42.6251 65.7901C42.6002 66.3163 42.5079 66.8245 42.3479 67.3147L49.7676 68.446L47.4898 70.9152L41.1521 69.7058L40.0595 70.8902L44.0864 74.6048L42.0338 76.83L31.5395 67.1495L34.3602 64.0916ZM36.0377 65.9314L35.4153 66.6061L38.2507 69.2216L38.9128 68.5038C39.5926 67.7668 39.9561 67.1279 40.0034 66.5869C40.0503 66.0367 39.8345 65.541 39.356 65.0995C38.8583 64.6404 38.3453 64.4861 37.8169 64.6364C37.2929 64.7819 36.6999 65.2136 36.0377 65.9314Z" fill="white"/>
<path d="M56.5611 61.0813L50.9859 67.1252L40.4916 57.4447L46.0668 51.4008L47.89 53.0827L44.3674 56.9014L46.6716 59.0269L49.9492 55.4737L51.7724 57.1555L48.4948 60.7087L51.201 63.205L54.7235 59.3862L56.5611 61.0813Z" fill="white"/>
<path d="M60.6068 56.6955L58.5873 58.8848L48.0929 49.2043L53.6417 43.1891L55.4649 44.871L51.9357 48.6969L54.6418 51.1931L57.926 47.6328L59.7421 49.308L56.4579 52.8683L60.6068 56.6955Z" fill="white"/>
<path d="M58.3561 38.0783C59.2345 37.126 60.0733 36.4472 60.8725 36.0418C61.676 35.6315 62.4489 35.4898 63.1912 35.6165C63.9335 35.7432 64.6588 36.1332 65.367 36.7865C65.8455 37.2279 66.1804 37.7051 66.3715 38.218C66.5627 38.7309 66.6459 39.2505 66.621 39.7768C66.5962 40.303 66.5038 40.8112 66.3439 41.3014L73.7635 42.4327L71.4857 44.9019L65.148 43.6925L64.0555 44.8769L68.0823 48.5915L66.0297 50.8167L55.5354 41.1362L58.3561 38.0783ZM60.0337 39.9181L59.4112 40.5928L62.2466 43.2083L62.9087 42.4905C63.5885 41.7535 63.9521 41.1146 63.9993 40.5736C64.0463 40.0234 63.8305 39.5277 63.3519 39.0862C62.8542 38.6271 62.3412 38.4728 61.8128 38.6231C61.2889 38.7686 60.6958 39.2003 60.0337 39.9181Z" fill="white"/>
<path d="M78.5069 26.7332C79.3156 27.4792 79.9599 28.2595 80.4397 29.074C80.9146 29.8842 81.2016 30.7157 81.3005 31.5687C81.4038 32.4169 81.2956 33.2736 80.9757 34.1389C80.6511 34.9997 80.0937 35.8584 79.3035 36.715C78.5134 37.5716 77.7023 38.1963 76.8704 38.5893C76.0338 38.9778 75.1863 39.1571 74.3282 39.1272C73.4744 39.0925 72.6223 38.8689 71.7717 38.4563C70.9211 38.0437 70.0891 37.4622 69.2756 36.7118C68.1893 35.7097 67.4075 34.6609 66.9302 33.5652C66.4526 32.4602 66.3333 31.3317 66.5725 30.1794C66.8117 29.0271 67.4588 27.8792 68.5138 26.7354C69.5644 25.5965 70.6499 24.8662 71.7703 24.5446C72.8951 24.2182 74.0252 24.2509 75.1606 24.6428C76.3004 25.0299 77.4158 25.7267 78.5069 26.7332ZM71.4419 34.3922C72.174 35.0675 72.8896 35.5593 73.5885 35.8674C74.2871 36.1664 74.9609 36.2521 75.61 36.1245C76.2543 35.9926 76.8634 35.6155 77.4372 34.9934C78.0199 34.3618 78.351 33.7195 78.4307 33.0667C78.5055 32.4094 78.3614 31.7495 77.9984 31.0868C77.6349 30.415 77.0871 29.7414 76.355 29.066C75.2543 28.0507 74.1984 27.4575 73.1871 27.2864C72.1758 27.1153 71.2353 27.501 70.3657 28.4438C69.7874 29.0707 69.4587 29.7151 69.3794 30.3772C69.2998 31.03 69.4395 31.6947 69.7985 32.3713C70.1571 33.0388 70.7049 33.7124 71.4419 34.3922Z" fill="white"/>
<path d="M94.3627 20.1017L91.7538 22.9299L79.6037 20.1719L79.5441 20.2365C79.8919 20.5219 80.24 20.812 80.5882 21.1066C80.9364 21.4013 81.2846 21.6959 81.6329 21.9905C81.9763 22.2808 82.3221 22.5732 82.6703 22.8678L87.6088 27.4234L85.7747 29.4117L75.2804 19.7312L77.8694 16.9246L89.9339 19.6169L89.9803 19.5667C89.646 19.2761 89.312 18.9901 88.9781 18.7087C88.6443 18.4273 88.3104 18.1459 87.9765 17.8645C87.6471 17.5783 87.3176 17.2921 86.9882 17.0059L82.021 12.4239L83.8683 10.4213L94.3627 20.1017Z" fill="white"/>
<path d="M100.54 13.4046L98.4878 15.6298L89.8454 7.65765L87.2167 10.5073L85.3648 8.79902L92.6748 0.874438L94.5267 2.58276L91.898 5.43245L100.54 13.4046Z" fill="white"/>
<defs>
<linearGradient id="paint0_linear_1255_18625" x1="240" y1="60" x2="240" y2="420" gradientUnits="userSpaceOnUse">
<stop stop-color="#232D3F"/>
<stop offset="1" stop-color="#0189EC"/>
</linearGradient>
</defs>
</svg>
