<svg width="480" height="480" viewBox="0 0 480 480" fill="none" xmlns="http://www.w3.org/2000/svg">
<rect x="0.075" y="0.075" width="479.85" height="479.85" stroke="#0B81DA" stroke-opacity="0.5" stroke-width="0.15"/>
<path d="M53.3333 0L0 57.1428V171.429L160 0H53.3333Z" fill="#FF5757"/>
<path d="M20.083 59.7758L27.9703 72.2189L25.6037 74.7254L18.8229 70.9825C18.6919 70.9126 18.4976 70.8007 18.2399 70.6469C17.9822 70.4931 17.7033 70.3238 17.4032 70.139C17.0984 69.9497 16.8147 69.7714 16.552 69.6039C16.289 69.4272 16.0845 69.2834 15.9386 69.1725C16.0577 69.3118 16.2084 69.5078 16.3907 69.7605C16.5774 70.0085 16.7716 70.2769 16.9734 70.5659C17.1796 70.8501 17.3692 71.1187 17.5422 71.3716C17.7153 71.6245 17.8452 71.8188 17.932 71.9545L22.0504 78.4888L19.6905 80.9883L6.80859 73.8352L8.8534 71.6695L15.7735 75.6916C15.9796 75.8147 16.2234 75.9643 16.5048 76.1404C16.7907 76.3118 17.0861 76.4968 17.3912 76.6952C17.696 76.8845 17.9869 77.0742 18.2641 77.2643C18.541 77.4451 18.776 77.6088 18.969 77.7552C18.8115 77.5617 18.6323 77.3343 18.4313 77.0729C18.2257 76.8071 18.0199 76.5367 17.8139 76.2617C17.6077 75.9775 17.4205 75.7111 17.2522 75.4627C17.0838 75.2142 16.9513 75.0085 16.8545 74.8454L12.467 67.8422L14.4313 65.7617L21.6748 69.74C21.8339 69.8276 22.0425 69.9528 22.3005 70.1158C22.5582 70.2696 22.8348 70.4413 23.1304 70.6308C23.426 70.8204 23.7124 71.0102 23.9896 71.2003C24.2665 71.3811 24.5015 71.5448 24.6945 71.6912C24.4891 71.4346 24.2452 71.1192 23.9627 70.7451C23.68 70.3617 23.4018 69.9783 23.1283 69.5947C22.8592 69.2063 22.6357 68.8788 22.4576 68.6122L18.0382 61.9415L20.083 59.7758Z" fill="white"/>
<path d="M31.6979 68.2709L21.3166 58.4692L23.395 56.268L33.7762 66.0697L31.6979 68.2709Z" fill="white"/>
<path d="M44.9388 54.247L42.2973 57.0446L30.18 54.1458L30.1197 54.2097C30.4642 54.4991 30.8088 54.7932 31.1536 55.0919C31.4984 55.3905 31.8432 55.6892 32.1879 55.9879C32.528 56.2821 32.8704 56.5785 33.2152 56.8772L38.1005 61.4897L36.2434 63.4566L25.8621 53.655L28.4835 50.8786L40.516 53.7108L40.5629 53.6611C40.2321 53.3666 39.9014 53.0768 39.5708 52.7915C39.2402 52.5063 38.9097 52.221 38.5791 51.9357C38.253 51.6458 37.9269 51.3558 37.6008 51.0658L32.6871 46.4264L34.5576 44.4453L44.9388 54.247Z" fill="white"/>
<path d="M50.2549 38.0189C51.4242 39.1229 52.1894 40.2707 52.5506 41.4624C52.9116 42.6448 52.8908 43.8474 52.4884 45.0702C52.0813 46.2886 51.3146 47.4942 50.1883 48.6871L47.4127 51.6268L37.0314 41.8252L40.1087 38.5659C41.1367 37.4771 42.2224 36.716 43.366 36.2825C44.5047 35.8445 45.6607 35.7629 46.8337 36.0378C48.0021 36.3082 49.1425 36.9686 50.2549 38.0189ZM48.153 40.359C47.3861 39.6349 46.6492 39.1541 45.9424 38.9165C45.2352 38.6697 44.5555 38.6547 43.9032 38.8714C43.2553 39.0835 42.6274 39.5114 42.0195 40.1552L40.9133 41.3268L47.6732 47.7093L48.5649 46.7649C49.5795 45.6903 50.0462 44.6223 49.965 43.5607C49.8884 42.4945 49.2843 41.4272 48.153 40.359Z" fill="white"/>
<path d="M61.2681 26.5252C62.0681 27.2806 62.7033 28.0683 63.1735 28.8884C63.6391 29.704 63.9164 30.5388 64.0054 31.3929C64.0988 32.2422 63.9806 33.0976 63.6507 33.9591C63.3161 34.8161 62.7488 35.6683 61.9488 36.5156C61.1487 37.363 60.3305 37.9783 59.4941 38.3615C58.653 38.7403 57.8035 38.9098 56.9458 38.8699C56.0925 38.8254 55.243 38.5918 54.3973 38.1694C53.5515 37.747 52.7263 37.1558 51.9216 36.396C50.847 35.3814 50.0774 34.3236 49.6129 33.2224C49.1481 32.112 49.0419 30.9821 49.2945 29.8327C49.547 28.6833 50.2074 27.5429 51.2756 26.4115C52.3393 25.2849 53.4332 24.5672 54.5573 24.2586C55.6859 23.9453 56.8155 23.9911 57.9463 24.3962C59.0815 24.7965 60.1888 25.5062 61.2681 26.5252ZM54.1146 34.1017C54.8389 34.7855 55.5487 35.2856 56.244 35.6018C56.939 35.9088 57.6118 36.0023 58.2623 35.8823C58.9081 35.7579 59.5215 35.3879 60.1026 34.7725C60.6926 34.1477 61.0311 33.5093 61.1183 32.8574C61.2008 32.2011 61.0644 31.5395 60.709 30.8727C60.3534 30.1967 59.8135 29.5168 59.0892 28.833C58.0004 27.805 56.9514 27.1995 55.9422 27.0167C54.9329 26.8338 53.9881 27.2086 53.1076 28.1412C52.5221 28.7613 52.1858 29.4019 52.0989 30.063C52.0117 30.7149 52.1437 31.3812 52.4948 32.0619C52.8457 32.7335 53.3856 33.4134 54.1146 34.1017Z" fill="white"/>
<path d="M70.1639 6.7334L78.0512 19.1765L75.6846 21.6831L68.9038 17.9401C68.7728 17.8702 68.5785 17.7583 68.3208 17.6046C68.0631 17.4508 67.7842 17.2815 67.4841 17.0966C67.1793 16.9074 66.8956 16.729 66.6329 16.5615C66.3699 16.3849 66.1654 16.2411 66.0195 16.1301C66.1386 16.2695 66.2893 16.4655 66.4716 16.7181C66.6583 16.9661 66.8525 17.2345 67.0542 17.5235C67.2604 17.8077 67.4501 18.0763 67.6231 18.3292C67.7962 18.5822 67.9261 18.7765 68.0129 18.9121L72.1313 25.4464L69.7714 27.9459L56.8895 20.7928L58.9343 18.6271L65.8544 22.6493C66.0605 22.7723 66.3043 22.9219 66.5857 23.098C66.8715 23.2694 67.167 23.4544 67.4721 23.6529C67.7768 23.8421 68.0678 24.0318 68.345 24.2219C68.6219 24.4028 68.8569 24.5664 69.0499 24.7129C68.8924 24.5193 68.7132 24.2919 68.5122 24.0306C68.3066 23.7648 68.1008 23.4943 67.8948 23.2193C67.6886 22.9351 67.5014 22.6688 67.333 22.4203C67.1647 22.1718 67.0322 21.9661 66.9354 21.8031L62.5479 14.7998L64.5122 12.7193L71.7557 16.6976C71.9148 16.7852 72.1234 16.9105 72.3813 17.0734C72.6391 17.2272 72.9157 17.3989 73.2113 17.5885C73.5069 17.778 73.7933 17.9678 74.0705 18.1579C74.3474 18.3388 74.5823 18.5024 74.7754 18.6488C74.57 18.3922 74.326 18.0769 74.0436 17.7027C73.7608 17.3194 73.4827 16.9359 73.2092 16.5523C72.9401 16.1639 72.7166 15.8365 72.5385 15.5699L68.1191 8.89912L70.1639 6.7334Z" fill="white"/>
<path d="M46.4044 85.796C47.5736 86.9 48.3389 88.0478 48.7001 89.2394C49.061 90.4219 49.0403 91.6245 48.6379 92.8473C48.2308 94.0656 47.464 95.2712 46.3377 96.4642L43.5622 99.4039L33.1809 89.6022L36.2582 86.343C37.2862 85.2542 38.3719 84.4931 39.5154 84.0596C40.6542 83.6216 41.8101 83.54 42.9832 83.8149C44.1516 84.0853 45.292 84.7457 46.4044 85.796ZM44.3024 88.1361C43.5356 87.412 42.7987 86.9312 42.0918 86.6936C41.3847 86.4468 40.705 86.4317 40.0526 86.6485C39.4047 86.8605 38.7769 87.2885 38.169 87.9323L37.0628 89.1039L43.8227 95.4863L44.7144 94.542C45.7289 93.4674 46.1957 92.3993 46.1145 91.3378C46.0378 90.2715 45.4338 89.2043 44.3024 88.1361Z" fill="white"/>
<path d="M53.7258 88.6392L43.3446 78.8375L45.4229 76.6363L55.8042 86.4379L53.7258 88.6392Z" fill="white"/>
<path d="M61.1742 74.975C61.7896 75.5561 62.1837 76.2102 62.3566 76.9375C62.5295 77.6648 62.4686 78.4311 62.1739 79.2363C61.8837 80.0368 61.3543 80.8441 60.5855 81.6583C60.2458 82.0181 59.8892 82.3484 59.5156 82.6493C59.1464 82.9454 58.7672 83.2096 58.3778 83.4419C57.9881 83.6649 57.5905 83.8536 57.1851 84.0081L55.1401 82.0772C55.8227 81.7905 56.5018 81.4647 57.1776 81.0999C57.8533 80.7351 58.437 80.2923 58.9286 79.7716C59.2683 79.4119 59.4936 79.0784 59.6045 78.7712C59.7199 78.4594 59.7417 78.1755 59.6699 77.9197C59.5981 77.6638 59.4556 77.4353 59.2426 77.2342C58.9823 76.9884 58.6771 76.8659 58.3271 76.8667C57.9771 76.8676 57.5764 76.9459 57.1249 77.1016C56.6779 77.2526 56.1811 77.4327 55.6344 77.6418C55.2929 77.7759 54.9075 77.9091 54.4784 78.0411C54.0446 78.1687 53.5886 78.2486 53.1106 78.2807C52.6325 78.3129 52.1472 78.2531 51.6547 78.1015C51.1619 77.9406 50.6788 77.6367 50.2054 77.1898C49.5853 76.6043 49.1892 75.9617 49.0171 75.262C48.8451 74.5623 48.8911 73.8402 49.1553 73.0958C49.4192 72.3421 49.8908 71.6055 50.5702 70.8859C51.0797 70.3463 51.6285 69.893 52.2167 69.5261C52.8046 69.15 53.4694 68.8062 54.2112 68.4948L55.252 70.8206C54.6065 71.1154 54.0529 71.4031 53.5912 71.6834C53.1248 71.9593 52.7061 72.2938 52.3351 72.6867C52.0759 72.9612 51.8996 73.238 51.8063 73.517C51.7082 73.7915 51.6928 74.0545 51.7599 74.3059C51.8222 74.5528 51.9575 74.7746 52.1658 74.9712C52.412 75.2036 52.6873 75.3293 52.9918 75.3482C53.2961 75.3579 53.6626 75.2921 54.0915 75.1508C54.5248 75.0048 55.0512 74.8124 55.6707 74.5735C56.4222 74.2802 57.1117 74.0762 57.7394 73.9614C58.3668 73.8375 58.9612 73.8481 59.5226 73.9931C60.0793 74.1337 60.6298 74.461 61.1742 74.975Z" fill="white"/>
<path d="M58.5834 62.6976C59.8482 61.3579 61.06 60.653 62.2185 60.5829C63.3724 60.5083 64.4534 60.947 65.4617 61.899C65.9162 62.3281 66.2869 62.808 66.5738 63.3386C66.8561 63.8647 67.0106 64.4359 67.0375 65.0523C67.0689 65.6639 66.9357 66.3171 66.6379 67.0119C66.3353 67.7022 65.8265 68.426 65.1114 69.1834L64.2197 70.1278L67.9121 73.614L65.8337 75.8153L55.4525 66.0136L58.5834 62.6976ZM60.2797 64.5141L59.3344 65.5153L62.4161 68.4249L63.0999 67.7007C63.4888 67.2888 63.7718 66.88 63.949 66.4743C64.1261 66.0685 64.177 65.6733 64.1014 65.2886C64.0259 64.9039 63.8059 64.5395 63.4414 64.1953C62.9301 63.7126 62.4174 63.4971 61.903 63.5487C61.384 63.5958 60.8429 63.9176 60.2797 64.5141Z" fill="white"/>
<path d="M74.4554 66.6837L64.0742 56.8821L66.1525 54.6809L74.716 62.7662L78.6916 58.5555L80.5094 60.2718L74.4554 66.6837Z" fill="white"/>
<path d="M88.2193 52.106L85.0376 50.5256L81.4642 54.3102L83.2246 57.396L80.9854 59.7676L74.0209 46.2618L76.5618 43.5706L90.4585 49.7343L88.2193 52.106ZM82.6953 49.3079L79.5704 47.7811C79.3647 47.6765 79.0985 47.546 78.7716 47.3896C78.4445 47.224 78.1127 47.0585 77.7764 46.8931C77.4398 46.7186 77.1521 46.5634 76.9133 46.4274C77.0627 46.658 77.2416 46.9522 77.4499 47.3101C77.6579 47.6587 77.854 47.9916 78.0381 48.3087C78.2222 48.6258 78.3531 48.8523 78.4307 48.9882L80.141 52.0133L82.6953 49.3079Z" fill="white"/>
<path d="M88.6426 39.4242L86.4128 33.2225L88.652 30.8509L91.7414 40.2816L95.7817 44.0964L93.7168 46.2834L89.7475 42.5357L80.084 39.9256L82.3366 37.5397L88.6426 39.4242Z" fill="white"/>
<path d="M386.944 378.889H380.926V126.111H386.944C397.176 126.111 405 118.287 405 108.056C405 97.8241 397.176 90 386.944 90H98.0556C87.8241 90 80 97.8241 80 108.056C80 118.287 87.8241 126.111 98.0556 126.111H104.074V378.889H98.0556C87.8241 378.889 80 386.713 80 396.944C80 407.176 87.8241 415 98.0556 415H386.944C397.176 415 405 407.176 405 396.944C405 386.713 397.176 378.889 386.944 378.889ZM98.0556 114.074C94.4444 114.074 92.037 111.667 92.037 108.056C92.037 104.444 94.4444 102.037 98.0556 102.037H386.944C390.556 102.037 392.963 104.444 392.963 108.056C392.963 111.667 390.556 114.074 386.944 114.074H98.0556ZM368.889 126.111V378.889H116.111V126.111H368.889ZM386.944 402.963H98.0556C94.4444 402.963 92.037 400.556 92.037 396.944C92.037 393.333 94.4444 390.926 98.0556 390.926H386.944C390.556 390.926 392.963 393.333 392.963 396.944C392.963 400.556 390.556 402.963 386.944 402.963Z" fill="url(#paint0_linear_2017_14176)"/>
<path d="M295.77 271.345C295.943 271.983 296.321 272.545 296.846 272.946C297.37 273.347 298.012 273.565 298.673 273.565H313.719C314.178 273.565 314.632 273.46 315.044 273.258C315.456 273.055 315.817 272.761 316.098 272.398C316.379 272.035 316.574 271.613 316.667 271.163C316.759 270.713 316.748 270.248 316.633 269.803L292.559 176.516C292.428 176.008 292.165 175.544 291.799 175.168C291.433 174.792 290.976 174.519 290.472 174.374L268.016 167.959L262.165 157.72C261.902 157.259 261.522 156.877 261.063 156.61C260.604 156.344 260.083 156.204 259.552 156.204H235.478C234.948 156.204 234.427 156.344 233.968 156.61C233.509 156.877 233.129 157.259 232.866 157.72L227.015 167.959L204.558 174.375C204.054 174.519 203.597 174.793 203.232 175.169C202.866 175.544 202.605 176.009 202.474 176.516L178.398 269.803C178.283 270.248 178.272 270.713 178.364 271.163C178.457 271.613 178.651 272.035 178.933 272.398C179.214 272.761 179.575 273.055 179.987 273.258C180.399 273.46 180.852 273.565 181.312 273.565H196.358C197.018 273.565 197.66 273.347 198.185 272.946C198.71 272.545 199.088 271.983 199.261 271.345L211.615 226.05L214.309 240.194L205.578 263.478C205.406 263.933 205.348 264.423 205.408 264.906C205.467 265.389 205.643 265.85 205.92 266.25C206.197 266.65 206.567 266.977 206.998 267.203C207.429 267.429 207.909 267.546 208.395 267.546H210.283C209.026 271.435 208.388 275.497 208.395 279.583V333.75C208.395 334.548 208.712 335.314 209.276 335.878C209.841 336.442 210.606 336.759 211.404 336.759H283.627C284.425 336.759 285.19 336.442 285.754 335.878C286.319 335.314 286.636 334.548 286.636 333.75V279.583C286.641 275.497 286.004 271.435 284.746 267.546H286.636C287.122 267.546 287.601 267.428 288.032 267.203C288.462 266.977 288.832 266.651 289.109 266.251C289.386 265.851 289.562 265.391 289.622 264.908C289.682 264.426 289.624 263.936 289.453 263.48L280.722 240.196L283.416 226.053L295.77 271.345ZM300.971 267.546L285.981 212.585L290.088 191.026L309.835 267.546H300.971ZM242.786 205.972L226.94 180.221L234.229 167.464L242.786 205.972ZM239.23 162.222H255.801L247.515 199.508L239.23 162.222ZM260.802 167.464L268.091 180.221L252.245 205.972L260.802 167.464ZM194.06 267.546H185.196L204.944 191.026L209.051 212.584L194.06 267.546ZM220.24 241.52C220.435 241.003 220.482 240.442 220.379 239.9L208.857 179.407L222.74 175.44L220.829 178.785C220.561 179.254 220.424 179.786 220.433 180.327C220.441 180.867 220.596 181.395 220.879 181.855L244.506 220.25V261.528H212.737L220.24 241.52ZM280.617 279.583V330.741H268.58V297.639C268.58 296.841 268.263 296.075 267.699 295.511C267.135 294.947 266.369 294.63 265.571 294.63C264.773 294.63 264.007 294.947 263.443 295.511C262.879 296.075 262.562 296.841 262.562 297.639V330.741H214.414V279.583C214.405 275.465 215.17 271.382 216.671 267.546H278.351C279.853 271.381 280.622 275.464 280.617 279.583ZM282.293 261.528H250.525V220.25L274.152 181.855C274.435 181.395 274.589 180.867 274.598 180.327C274.607 179.786 274.47 179.254 274.202 178.785L272.291 175.44L286.174 179.407L274.652 239.899C274.549 240.441 274.596 241.002 274.791 241.518L282.293 261.528Z" fill="url(#paint1_linear_2017_14176)"/>
<defs>
<linearGradient id="paint0_linear_2017_14176" x1="242.5" y1="25" x2="242.5" y2="415" gradientUnits="userSpaceOnUse">
<stop stop-color="#232D3F"/>
<stop offset="1" stop-color="#0189EC"/>
</linearGradient>
<linearGradient id="paint1_linear_2017_14176" x1="242.5" y1="25" x2="242.5" y2="415" gradientUnits="userSpaceOnUse">
<stop stop-color="#232D3F"/>
<stop offset="1" stop-color="#0189EC"/>
</linearGradient>
</defs>
</svg>
