<svg width="16" height="16" viewBox="0 0 16 16" fill="none" xmlns="http://www.w3.org/2000/svg">
<path d="M4.57145 5.3403C4.5715 7.10638 4.57161 11.3574 4.57143 11.403C4.57125 11.4487 8.8951 11.4218 10.6759 11.4088C11.0942 11.4058 11.4286 11.0685 11.4286 10.6502V4.58422C11.4286 4.56138 7.11013 4.57479 5.32732 4.5813C4.90778 4.58283 4.57144 4.92075 4.57145 5.3403Z" fill="#232D3F"/>
<path d="M0.773825 11.4134C1.81376 11.4272 3.53804 11.4438 3.58 11.4018C3.62841 11.3534 3.59891 6.16141 3.58554 4.13429C3.58264 3.69413 3.93717 3.33909 4.37716 3.34207C6.35898 3.35552 11.3536 3.38458 11.4018 3.33637C11.4429 3.29531 11.4279 1.78187 11.4142 0.825264C11.4081 0.397212 11.0603 0.0542162 10.6323 0.0519567L0.792337 1.12146e-05C0.355419 -0.00229498 0 0.351382 0 0.788466V10.6267C0 11.0569 0.343817 11.4076 0.773825 11.4134Z" fill="#232D3F"/>
<path d="M15.2262 4.58665C14.1862 4.57277 12.462 4.55621 12.42 4.59818C12.3716 4.64662 12.4011 9.83859 12.4145 11.8657C12.4174 12.3059 12.0628 12.6609 11.6228 12.6579C9.64102 12.6445 4.64639 12.6154 4.59817 12.6636C4.5571 12.7047 4.5721 14.2181 4.58576 15.1747C4.59187 15.6028 4.93974 15.9458 5.36767 15.948L15.2077 16C15.6446 16.0023 16 15.6486 16 15.2115V5.37328C16 4.94308 15.6562 4.59238 15.2262 4.58665Z" fill="#232D3F"/>
</svg>
