<svg width="210" height="52" viewBox="0 0 210 52" fill="none" xmlns="http://www.w3.org/2000/svg">
<path d="M12.2721 13.4696C12.2722 15.8927 12.2724 21.7252 12.2721 21.7877C12.2719 21.8504 18.2043 21.8136 20.6476 21.7957C21.2215 21.7915 21.6803 21.3288 21.6803 20.7549V12.4322C21.6803 12.4009 15.7553 12.4193 13.3092 12.4282C12.7336 12.4303 12.2721 12.894 12.2721 13.4696Z" fill="#031B64"/>
<path d="M7.06171 21.802C8.48852 21.821 10.8543 21.8437 10.9118 21.7861C10.9783 21.7197 10.9378 14.5962 10.9194 11.8149C10.9155 11.211 11.4019 10.7239 12.0056 10.728C14.7247 10.7464 21.5774 10.7863 21.6436 10.7202C21.6999 10.6638 21.6794 8.58735 21.6606 7.27486C21.6522 6.68756 21.1749 6.21696 20.5878 6.21386L7.08711 6.14259C6.48764 6.13943 6 6.62468 6 7.22437V20.7227C6 21.3129 6.47173 21.7941 7.06171 21.802Z" fill="#031B64"/>
<path d="M26.8907 12.4356C25.4639 12.4165 23.0981 12.3938 23.0405 12.4514C22.9741 12.5178 23.0146 19.6413 23.0329 22.4226C23.0369 23.0265 22.5505 23.5136 21.9468 23.5095C19.2277 23.4911 12.375 23.4512 12.3088 23.5174C12.2524 23.5737 12.273 25.6502 12.2918 26.9627C12.3002 27.55 12.7774 28.0206 13.3646 28.0237L26.8653 28.0949C27.4647 28.0981 27.9524 27.6128 27.9524 27.0131V13.5148C27.9524 12.9246 27.4807 12.4434 26.8907 12.4356Z" fill="#031B64"/>
<path d="M140 35.481H145.682L145.791 37.6403H145.596C145.287 36.9062 144.967 36.4033 144.633 36.1293C144.299 35.8564 143.808 35.7193 143.16 35.7193H142.774V39.0941H143.146C143.489 39.0941 143.776 38.9654 144.009 38.708C144.243 38.4506 144.407 38.1026 144.5 37.6641H144.666V40.8958H144.481C144.349 40.3524 144.173 39.9652 143.951 39.7328C143.729 39.498 143.424 39.3801 143.036 39.3801H142.774V42.8883H143.189C143.859 42.8883 144.429 42.6881 144.9 42.2877C145.37 41.8849 145.692 41.3701 145.868 40.7433H146.087L145.996 43.1266H140V42.8883H140.643V35.7193H140V35.481Z" fill="#FF914D"/>
<path d="M149.32 40.5574H149.635V39.7185C149.635 39.0261 149.596 38.5626 149.52 38.3266C149.444 38.0883 149.297 37.9692 149.082 37.9692C148.948 37.9692 148.829 38.0049 148.724 38.074C148.619 38.1443 148.567 38.2397 148.567 38.36C148.567 38.478 148.588 38.5983 148.634 38.7223H148.905C148.962 38.8748 148.991 39.0595 148.991 39.2752C148.991 39.4921 148.9 39.678 148.719 39.8329C148.538 39.989 148.309 40.0664 148.033 40.0664C147.404 40.0664 147.089 39.765 147.089 39.1608C147.089 38.2647 147.849 37.8166 149.372 37.8166C150.24 37.8166 150.838 37.9644 151.169 38.2599C151.503 38.5554 151.67 39.0964 151.67 39.8805V42.1018C151.67 42.4807 151.775 42.669 151.984 42.669C152.232 42.669 152.378 42.2948 152.423 41.5441L152.585 41.5536C152.556 42.1959 152.435 42.638 152.223 42.8787C152.013 43.117 151.667 43.2362 151.188 43.2362C150.314 43.2362 149.812 42.9669 149.682 42.4259C149.587 42.7024 149.444 42.9073 149.253 43.0408C149.065 43.1707 148.788 43.2362 148.424 43.2362C147.347 43.2362 146.808 42.7965 146.808 41.9159C146.808 41.3987 147.013 41.0424 147.423 40.8482C147.835 40.6551 148.468 40.5574 149.32 40.5574ZM148.881 41.9016C148.881 42.2805 148.902 42.5248 148.943 42.6356C148.984 42.7441 149.06 42.7977 149.172 42.7977C149.287 42.7977 149.391 42.7059 149.487 42.5212C149.584 42.3341 149.635 42.0767 149.635 41.749V40.7338H149.558C149.107 40.7338 148.881 41.0662 148.881 41.73V41.9016Z" fill="#FF914D"/>
<path d="M152.949 43.2362V41.2819H153.078C153.268 41.9147 153.522 42.358 153.84 42.6118C154.161 42.8668 154.562 42.9931 155.046 42.9931C155.786 42.9931 156.157 42.7584 156.157 42.2877C156.157 42.0815 156.066 41.9278 155.885 41.8253C155.602 41.6668 155.238 41.5429 154.794 41.4535C154.298 41.3236 153.883 41.1485 153.55 40.9292C153.149 40.6694 152.949 40.2547 152.949 39.6851C152.949 39.1167 153.123 38.6639 153.473 38.3266C153.822 37.987 154.288 37.8166 154.87 37.8166C155.225 37.8166 155.594 37.9012 155.976 38.0693C156.112 38.1265 156.216 38.1551 156.29 38.1551C156.363 38.1551 156.425 38.13 156.476 38.0788C156.526 38.0287 156.588 37.9346 156.662 37.7976H156.781V39.4659H156.653C156.281 38.5197 155.704 38.0454 154.922 38.0454C154.582 38.0454 154.328 38.1062 154.16 38.2265C153.99 38.3481 153.907 38.4982 153.907 38.6794C153.907 38.7914 153.932 38.8772 153.983 38.9368C154.033 38.9975 154.074 39.044 154.103 39.075C154.133 39.1036 154.181 39.1346 154.246 39.1656C154.312 39.1977 154.367 39.2228 154.412 39.2418C154.456 39.2609 154.523 39.2847 154.613 39.3133C154.704 39.3419 154.772 39.361 154.817 39.3705C155.31 39.4945 155.666 39.6029 155.885 39.6947C156.104 39.784 156.312 39.8937 156.51 40.0235C156.91 40.3 157.11 40.7469 157.11 41.363C157.11 41.9802 156.927 42.4473 156.562 42.7643C156.2 43.0789 155.7 43.2362 155.065 43.2362C154.614 43.2362 154.176 43.129 153.755 42.9169C153.669 42.8597 153.6 42.8311 153.55 42.8311C153.388 42.8311 153.23 42.9669 153.078 43.2362H152.949Z" fill="#FF914D"/>
<path d="M157.381 38.1217V37.9263H160.551V38.1217H159.96L161.151 41.749L162.419 38.1217H161.69V37.9263H163.229V38.1217H162.681L160.636 44.0132C160.398 44.696 160.129 45.1738 159.831 45.4479C159.532 45.7208 159.166 45.8578 158.735 45.8578C158.306 45.8578 157.967 45.7589 157.719 45.5623C157.474 45.3645 157.352 45.1142 157.352 44.8092C157.352 44.5041 157.431 44.2706 157.591 44.1085C157.749 43.9488 157.96 43.8702 158.225 43.8702C158.827 43.8702 159.13 44.1204 159.13 44.6233C159.13 44.7305 159.108 44.8628 159.063 45.0189H158.682C158.625 45.1834 158.617 45.3204 158.658 45.4288C158.702 45.5397 158.802 45.5957 158.959 45.5957C159.254 45.5957 159.517 45.4479 159.75 45.1524C159.985 44.8568 160.209 44.4064 160.422 43.8034L160.66 43.1266H159.697L157.829 38.1217H157.381Z" fill="#FF914D"/>
<path d="M165.336 35.481H169.269V35.7193H168.11V42.8883H168.506C169.126 42.8883 169.618 42.7 169.984 42.321C170.352 41.9397 170.725 41.357 171.104 40.5717H171.332L171.127 43.1266H165.336V42.8883H165.98V35.7193H165.336V35.481Z" fill="#FF914D"/>
<path d="M174.603 43.2362C173.661 43.2362 172.956 42.9955 172.486 42.5117C172.016 42.0255 171.781 41.3522 171.781 40.4907C171.781 39.6267 172.044 38.9654 172.572 38.5078C173.102 38.0478 173.775 37.8166 174.588 37.8166C176.244 37.8166 177.038 38.6484 176.972 40.3095H173.893V40.7338C173.893 41.4487 173.983 41.9898 174.164 42.3544C174.345 42.7167 174.661 42.8978 175.113 42.8978C175.958 42.8978 176.512 42.4473 176.776 41.5441L176.972 41.5774C176.835 42.1018 176.586 42.5105 176.223 42.8025C175.863 43.092 175.324 43.2362 174.603 43.2362ZM173.902 40.0903H175.027V39.5564C175.027 38.9654 174.991 38.5638 174.922 38.3505C174.855 38.1348 174.717 38.0264 174.507 38.0264C174.3 38.0264 174.148 38.1408 174.05 38.3695C173.951 38.5983 173.902 38.994 173.902 39.5564V40.0903Z" fill="#FF914D"/>
<path d="M179.988 40.5574H180.302V39.7185C180.302 39.0261 180.264 38.5626 180.188 38.3266C180.112 38.0883 179.965 37.9692 179.749 37.9692C179.616 37.9692 179.497 38.0049 179.392 38.074C179.287 38.1443 179.235 38.2397 179.235 38.36C179.235 38.478 179.256 38.5983 179.301 38.7223H179.573C179.63 38.8748 179.659 39.0595 179.659 39.2752C179.659 39.4921 179.568 39.678 179.387 39.8329C179.206 39.989 178.977 40.0664 178.701 40.0664C178.071 40.0664 177.757 39.765 177.757 39.1608C177.757 38.2647 178.517 37.8166 180.04 37.8166C180.908 37.8166 181.506 37.9644 181.837 38.2599C182.171 38.5554 182.338 39.0964 182.338 39.8805V42.1018C182.338 42.4807 182.442 42.669 182.652 42.669C182.9 42.669 183.045 42.2948 183.091 41.5441L183.253 41.5536C183.224 42.1959 183.103 42.638 182.89 42.8787C182.681 43.117 182.335 43.2362 181.856 43.2362C180.981 43.2362 180.48 42.9669 180.35 42.4259C180.255 42.7024 180.112 42.9073 179.921 43.0408C179.733 43.1707 179.456 43.2362 179.092 43.2362C178.014 43.2362 177.476 42.7965 177.476 41.9159C177.476 41.3987 177.681 41.0424 178.091 40.8482C178.503 40.6551 179.136 40.5574 179.988 40.5574ZM179.549 41.9016C179.549 42.2805 179.569 42.5248 179.611 42.6356C179.652 42.7441 179.728 42.7977 179.84 42.7977C179.954 42.7977 180.059 42.7059 180.154 42.5212C180.252 42.3341 180.302 42.0767 180.302 41.749V40.7338H180.226C179.774 40.7338 179.549 41.0662 179.549 41.73V41.9016Z" fill="#FF914D"/>
<path d="M183.617 43.2362V41.2819H183.745C183.936 41.9147 184.19 42.358 184.508 42.6118C184.829 42.8668 185.23 42.9931 185.714 42.9931C186.454 42.9931 186.825 42.7584 186.825 42.2877C186.825 42.0815 186.734 41.9278 186.553 41.8253C186.269 41.6668 185.906 41.5429 185.461 41.4535C184.966 41.3236 184.551 41.1485 184.217 40.9292C183.817 40.6694 183.617 40.2547 183.617 39.6851C183.617 39.1167 183.791 38.6639 184.141 38.3266C184.49 37.987 184.956 37.8166 185.538 37.8166C185.893 37.8166 186.262 37.9012 186.643 38.0693C186.779 38.1265 186.884 38.1551 186.958 38.1551C187.031 38.1551 187.093 38.13 187.144 38.0788C187.194 38.0287 187.256 37.9346 187.33 37.7976H187.449V39.4659H187.32C186.949 38.5197 186.372 38.0454 185.59 38.0454C185.249 38.0454 184.995 38.1062 184.827 38.2265C184.658 38.3481 184.575 38.4982 184.575 38.6794C184.575 38.7914 184.6 38.8772 184.651 38.9368C184.701 38.9975 184.742 39.044 184.77 39.075C184.801 39.1036 184.849 39.1346 184.913 39.1656C184.98 39.1977 185.035 39.2228 185.08 39.2418C185.124 39.2609 185.191 39.2847 185.28 39.3133C185.372 39.3419 185.44 39.361 185.485 39.3705C185.977 39.4945 186.334 39.6029 186.553 39.6947C186.772 39.784 186.98 39.8937 187.177 40.0235C187.578 40.3 187.778 40.7469 187.778 41.363C187.778 41.9802 187.594 42.4473 187.23 42.7643C186.868 43.0789 186.368 43.2362 185.733 43.2362C185.281 43.2362 184.844 43.129 184.422 42.9169C184.336 42.8597 184.267 42.8311 184.217 42.8311C184.055 42.8311 183.898 42.9669 183.745 43.2362H183.617Z" fill="#FF914D"/>
<path d="M189.707 37.1731C189.322 37.1731 189.047 37.0754 188.883 36.8776C188.721 36.681 188.64 36.4379 188.64 36.1483C188.64 35.8564 188.728 35.6169 188.907 35.4286C189.088 35.2379 189.359 35.1426 189.722 35.1426C190.086 35.1426 190.363 35.2284 190.551 35.4C190.742 35.5692 190.837 35.8123 190.837 36.1293C190.837 36.4474 190.744 36.7012 190.561 36.8919C190.379 37.0802 190.095 37.1731 189.707 37.1731ZM188.063 37.9263H190.737V42.9312H191.352V43.1266H188.106V42.9312H188.706V38.1217H188.063V37.9263Z" fill="#FF914D"/>
<path d="M191.593 37.9263H194.224V38.932C194.341 38.596 194.52 38.3255 194.758 38.1217C194.999 37.9191 195.363 37.8166 195.849 37.8166C196.98 37.8166 197.546 38.4256 197.546 39.6422V42.9312H198.157V43.1266H195.063V42.9312H195.511V39.3801C195.511 38.9415 195.482 38.6591 195.425 38.5316C195.368 38.4053 195.263 38.3409 195.111 38.3409C194.875 38.3409 194.669 38.4959 194.491 38.8033C194.312 39.1084 194.224 39.479 194.224 39.9139V42.9312H194.691V43.1266H191.593V42.9312H192.194V38.1217H191.593V37.9263Z" fill="#FF914D"/>
<path d="M202.68 37.359L202.985 37.1731C203.029 36.9479 202.942 36.8347 202.723 36.8347C202.41 36.8347 202.255 37.0754 202.255 37.5545C202.255 37.7451 202.28 37.9644 202.332 38.2122C202.885 38.5817 203.161 39.0559 203.161 39.6375C203.161 40.2166 202.961 40.6658 202.56 40.9864C202.16 41.3081 201.617 41.4678 200.93 41.4678C200.647 41.4678 200.354 41.438 200.049 41.3773C199.727 41.581 199.567 41.7347 199.567 41.8396C199.567 41.9421 199.798 41.9921 200.263 41.9921H201.378C203.034 41.9921 203.862 42.5856 203.862 43.7701C203.862 44.4112 203.612 44.92 203.113 45.2954C202.614 45.6695 201.836 45.8578 200.778 45.8578C198.978 45.8578 198.08 45.4682 198.08 44.69C198.08 44.267 198.361 43.975 198.924 43.813L199.577 44.1085C199.519 44.3206 199.491 44.5208 199.491 44.7091C199.491 45.3347 199.956 45.6481 200.887 45.6481C201.456 45.6481 201.893 45.5432 202.198 45.3335C202.503 45.1238 202.656 44.8616 202.656 44.547C202.656 44.2324 202.563 44.0227 202.379 43.9178C202.195 43.813 201.824 43.7605 201.269 43.7605H200.211C199.62 43.7605 199.196 43.6616 198.943 43.465C198.688 43.2672 198.561 43.0265 198.561 42.7405C198.561 42.4521 198.652 42.2114 198.833 42.0207C199.017 41.8277 199.341 41.587 199.805 41.301C198.959 41.0627 198.538 40.5097 198.538 39.6422C198.538 39.0964 198.734 38.6555 199.129 38.3219C199.522 37.9858 200.112 37.8166 200.897 37.8166C201.37 37.8166 201.775 37.9072 202.112 38.0883C202.067 37.8953 202.046 37.7165 202.046 37.5545C202.046 37.1481 202.155 36.8538 202.375 36.6726C202.594 36.4891 202.837 36.3962 203.104 36.3962C203.373 36.3962 203.59 36.4677 203.752 36.6107C203.917 36.7537 204 36.9491 204 37.197C204 37.4424 203.934 37.6248 203.805 37.7451C203.673 37.8667 203.515 37.9263 203.328 37.9263C203.143 37.9263 202.991 37.8774 202.87 37.7785C202.749 37.6808 202.686 37.5402 202.68 37.359ZM200.363 39.3991V39.9902C200.363 40.4799 200.404 40.8124 200.487 40.9864C200.573 41.1616 200.702 41.2486 200.873 41.2486C201.045 41.2486 201.169 41.1628 201.245 40.9912C201.321 40.8196 201.359 40.4692 201.359 39.9377V39.3991C201.359 38.8343 201.322 38.4625 201.25 38.2837C201.176 38.1026 201.054 38.0121 200.883 38.0121C200.711 38.0121 200.58 38.1062 200.492 38.2933C200.406 38.478 200.363 38.8462 200.363 39.3991Z" fill="#FF914D"/>
<path d="M40.969 6.3418C42.223 6.3418 43.3189 6.48622 44.2568 6.77507C45.1947 7.06391 45.9491 7.36881 46.52 7.68975C47.0909 8.01069 47.4376 8.22465 47.5599 8.33163L45.3578 12.199C45.1947 12.0706 44.9144 11.8834 44.5168 11.6373C44.1294 11.3913 43.6655 11.172 43.1252 10.9794C42.5951 10.7868 42.0395 10.6905 41.4584 10.6905C40.6734 10.6905 40.0362 10.8403 39.5469 11.1399C39.0677 11.4287 38.8281 11.862 38.8281 12.4397C38.8281 12.8355 38.9556 13.1939 39.2104 13.5148C39.4755 13.8251 39.8731 14.1246 40.4032 14.4135C40.9435 14.6916 41.6266 14.9965 42.4523 15.3281C43.2068 15.617 43.9153 15.9593 44.5779 16.3552C45.2406 16.751 45.8217 17.2217 46.3212 17.7673C46.831 18.3022 47.2337 18.9227 47.5293 19.6287C47.825 20.3348 47.9728 21.1372 47.9728 22.0358C47.9728 23.1056 47.7638 24.0363 47.3458 24.828C46.9278 25.6089 46.3569 26.2562 45.6331 26.7697C44.9195 27.2832 44.1039 27.663 43.1864 27.909C42.279 28.1658 41.336 28.2942 40.3573 28.2942C38.9708 28.2942 37.7271 28.1283 36.6261 27.7967C35.5352 27.4651 34.6534 27.1067 33.9805 26.7215C33.3077 26.3364 32.905 26.0797 32.7725 25.9513L35.051 21.9235C35.1733 22.0198 35.4078 22.1749 35.7544 22.3888C36.1112 22.6028 36.5445 22.8275 37.0542 23.0628C37.564 23.2875 38.1043 23.48 38.6752 23.6405C39.2563 23.801 39.8272 23.8812 40.3879 23.8812C41.3258 23.8812 42.0293 23.694 42.4982 23.3196C42.9672 22.9344 43.2017 22.4316 43.2017 21.8111C43.2017 21.3511 43.0538 20.9393 42.7582 20.5755C42.4625 20.2118 42.0191 19.8695 41.4278 19.5485C40.8365 19.2169 40.0974 18.8692 39.2104 18.5055C38.3235 18.131 37.4926 17.6764 36.7178 17.1415C35.9532 16.6066 35.3313 15.9379 34.8522 15.1356C34.373 14.3332 34.1335 13.3383 34.1335 12.1508C34.1335 10.9633 34.4495 9.93634 35.0816 9.0698C35.7238 8.19256 36.5649 7.51858 37.6048 7.04787C38.6548 6.57715 39.7762 6.3418 40.969 6.3418Z" fill="#031B64"/>
<path d="M50.7581 6.72693H58.0983C59.393 6.72693 60.5603 6.96763 61.6002 7.44904C62.64 7.91976 63.4658 8.64187 64.0775 9.61539C64.6994 10.5782 65.0103 11.7871 65.0103 13.242C65.0103 14.6863 64.6994 15.9165 64.0775 16.9328C63.4658 17.9385 62.64 18.7087 61.6002 19.2436C60.5603 19.7678 59.393 20.0299 58.0983 20.0299H55.3304V27.909H50.7581V6.72693ZM55.3304 16.2428H56.829C57.4509 16.2428 58.0065 16.1465 58.4959 15.954C58.9954 15.7614 59.393 15.4565 59.6887 15.0393C59.9843 14.6114 60.1321 14.0497 60.1321 13.3544C60.1321 12.6483 59.9843 12.092 59.6887 11.6855C59.393 11.2682 58.9954 10.9687 58.4959 10.7868C58.0065 10.605 57.4509 10.514 56.829 10.514H55.3304V16.2428Z" fill="#031B64"/>
<path d="M71.8776 6.72693H76.4194L84.3866 27.909H79.5084L78.0404 23.6566H70.272L68.7887 27.909H63.8952L71.8776 6.72693ZM71.8012 19.4522H76.5264L74.1868 12.5039H74.1409L71.8012 19.4522Z" fill="#031B64"/>
<path d="M95.794 23.5442C96.7319 23.5442 97.5832 23.3998 98.3478 23.111C99.1226 22.8221 99.6986 22.5386 100.076 22.2605L102.033 26.3364C101.554 26.7643 100.733 27.1976 99.5711 27.6362C98.4191 28.0748 97.0479 28.2942 95.4576 28.2942C93.9691 28.2942 92.5724 28.0214 91.2675 27.4758C89.9626 26.9302 88.8106 26.1652 87.8115 25.181C86.8226 24.1861 86.0427 23.0254 85.4718 21.6988C84.9111 20.3616 84.6308 18.912 84.6308 17.3501C84.6308 15.7882 84.9111 14.3386 85.4718 13.0013C86.0325 11.6534 86.8073 10.4819 87.7962 9.48702C88.7953 8.4921 89.9473 7.72184 91.2522 7.17624C92.5673 6.61995 93.9691 6.3418 95.4576 6.3418C97.0479 6.3418 98.4191 6.56111 99.5711 6.99973C100.733 7.43835 101.554 7.87162 102.033 8.29954L100.076 12.3755C99.6986 12.0866 99.1226 11.8031 98.3478 11.525C97.5832 11.2361 96.7319 11.0917 95.794 11.0917C94.7541 11.0917 93.8468 11.2629 93.072 11.6052C92.2972 11.9369 91.6498 12.3969 91.1299 12.9853C90.61 13.5737 90.2226 14.2369 89.9677 14.9751C89.7128 15.7133 89.5854 16.4889 89.5854 17.3019C89.5854 18.1257 89.7128 18.912 89.9677 19.6608C90.2226 20.399 90.61 21.0623 91.1299 21.6507C91.6498 22.2391 92.2972 22.7044 93.072 23.0468C93.8468 23.3784 94.7541 23.5442 95.794 23.5442Z" fill="#031B64"/>
<path d="M104.817 6.72693H117.708V10.9313H109.374V15.2479H117.632V19.3239H109.374V23.7047H117.708V27.909H104.817V6.72693Z" fill="#031B64"/>
<path d="M129.397 16.9649L137.074 27.909H131.614L125.406 18.6499V27.909H120.834V6.72693H125.406V15.3923L131.125 6.72693H136.279L129.397 16.9649Z" fill="#031B64"/>
<path d="M138.774 6.72693H147.001C148.174 6.72693 149.219 6.98368 150.136 7.49718C151.054 8.01069 151.778 8.7542 152.308 9.72772C152.848 10.6905 153.118 11.8406 153.118 13.1778C153.118 14.5151 152.889 15.6116 152.43 16.4675C151.982 17.3126 151.441 17.9492 150.809 18.3771C150.177 18.7943 149.591 19.0457 149.051 19.1313L153.959 27.909H148.821L144.448 19.5004H143.347V27.909H138.774V6.72693ZM143.347 16.1786H145.365C146.181 16.1786 146.894 15.97 147.506 15.5528C148.118 15.1356 148.424 14.3974 148.424 13.3383C148.424 12.2792 148.123 11.5464 147.521 11.1399C146.92 10.7226 146.211 10.514 145.396 10.514H143.347V16.1786Z" fill="#031B64"/>
<path d="M162.047 6.72693H166.589L174.556 27.909H169.678L168.21 23.6566H160.441L158.958 27.909H154.065L162.047 6.72693ZM161.971 19.4522H166.696L164.356 12.5039H164.31L161.971 19.4522Z" fill="#031B64"/>
<path d="M176.293 6.72693H187.961V10.9313H180.865V15.1998H187.425V19.388H180.865V27.909H176.293V6.72693Z" fill="#031B64"/>
<path d="M194.627 10.9313H189.81V6.72693H204.001V10.9313H199.199V27.909H194.627V10.9313Z" fill="#031B64"/>
</svg>
